<svg fill="#e1e1e1" xmlns="http://www.w3.org/2000/svg"
     viewBox="0 0 298.25 298.25">
    <g>
        <path d="M232.125,149c0-46.116-37.384-83.5-83.5-83.5s-83.5,37.384-83.5,83.5v83.25h167V149z M148.208,118.25
		c-16.956,0-30.75,13.794-30.75,30.75c0,4.143-3.357,7.5-7.5,7.5s-7.5-3.357-7.5-7.5c0-25.227,20.523-45.75,45.75-45.75
		c4.143,0,7.5,3.357,7.5,7.5S152.351,118.25,148.208,118.25z"/>
        <path d="M249.156,247.25H49.842c-13.496,0-24.717,15.596-24.717,29.097v21.903h248v-21.903
		C273.125,262.846,262.65,247.25,249.156,247.25z"/>
    </g>
</svg>
