<svg xmlns="http://www.w3.org/2000/svg" viewBox="0 0 47 31">
    <g fill="none" fill-rule="evenodd">
        <g>
            <path d="M9.5 25.5c0 .828-.672 1.5-1.5 1.5s-1.5-.672-1.5-1.5S7.172 24 8 24s1.5.672 1.5 1.5z" transform="translate(1 1) matrix(-1 0 0 1 46 0)"/>
            <path d="M14.81 29H2.19C1.257 29 .5 28.227.5 27.275V1.725C.5.772 1.257 0 2.19 0h12.62c.933 0 1.69.772 1.69 1.725v25.55c0 .952-.757 1.725-1.69 1.725z" transform="translate(1 1) matrix(-1 0 0 1 46 0)"/>
        </g>
        <g>
            <path d="M19 5.809L13.262.005H1.912S.049-.18 0 1.793v22.879l1.626 2.277L16.928 27l2.008-2.227L19 5.809z" transform="translate(1 1) translate(0 2)"/>
            <path d="M14.285 24H3.715C2.77 24 2 23.216 2 22.258V11.742C2 10.784 2.771 10 3.715 10h10.57c.944 0 1.715.784 1.715 1.742v10.516c0 .958-.771 1.742-1.715 1.742zM2 13.5L16 13.5M2 19.5L16 19.5M6.5 10L6.5 14M11.5 10L11.5 14M6.5 20L6.5 24M11.5 20L11.5 24" transform="translate(1 1) translate(0 2)"/>
        </g>
    </g>
</svg>