<svg version="1.1" id="Layer_1" xmlns="http://www.w3.org/2000/svg" viewBox="0 0 100.25 164.25"
     enable-background="new 0 0 100.25 164.25" xml:space="preserve">
<g>
	<linearGradient id="SVGID_1_" gradientUnits="userSpaceOnUse" x1="50.1245" y1="-4.882812e-04" x2="50.1245"
                    y2="164.2515">
		<stop offset="0" style="stop-color:#ED1C24"/>
        <stop offset="1" style="stop-color:#F47920"/>
	</linearGradient>
    <path fill="url(#SVGID_1_)" d="M53.25,164.251c-29,0-53.25-21-53.25-59.75C0,75.25,32.5,60.75,39,34s4.25-34,4.25-34
		S63,14,70,37.75s8,40.75,8,40.75s4.75-3.75,4.75-14.75s-2.25-18.5-2.25-18.5S97,63.75,97,82.5c0,18.751-5,30.001-5,30.001
		s2.75,1,4.75-1s3.5-5.25,3.5-5.25S98.75,164.251,53.25,164.251z"/>
    <linearGradient id="SVGID_2_" gradientUnits="userSpaceOnUse" x1="48.7495" y1="32.9995" x2="48.7495" y2="164.0015">
		<stop offset="0" style="stop-color:#F47920"/>
        <stop offset="1" style="stop-color:#FFC20E"/>
	</linearGradient>
    <path fill="url(#SVGID_2_)" d="M46.5,164.001c-16.5,0-39-18-39-43.25S31.5,74,40.75,60S49,33,49,33s13.75,12.5,15.25,26
		S72.5,99.001,79.5,99.001s6.5-11,6.5-11s1.25,4.75,1.25,6.25c0,7.75-3.75,15.5-3.75,24c0,13.75,6.5,13.5,6.5,13.5
		S84,164.001,46.5,164.001z"/>
    <linearGradient id="SVGID_3_" gradientUnits="userSpaceOnUse" x1="46.4136" y1="59.4995" x2="46.4136" y2="164.0015">
		<stop offset="0" style="stop-color:#FFC20E"/>
        <stop offset="1" style="stop-color:#FFF200"/>
	</linearGradient>
    <path fill="url(#SVGID_3_)" d="M47.5,164.001c-19,0-32.25-14.75-32.25-38.25s11.25-23.75,21.5-38C47,73.5,53,59.5,53,59.5
		s1.25,25,9.75,39.001c8.5,14,14.5,17,14.5,17s-1.25,3.25-0.5,7.5S83.5,164.001,47.5,164.001z"/>
    <linearGradient id="SVGID_4_" gradientUnits="userSpaceOnUse" x1="44.5103" y1="164.001" x2="44.5103" y2="88.751">
		<stop offset="0" style="stop-color:#FFFFFF"/>
        <stop offset="1" style="stop-color:#FFF200"/>
	</linearGradient>
    <path fill="url(#SVGID_4_)" d="M47.5,164.001c-17.75,0-27.75-12-27.75-28.5s13.75-27.75,13.75-27.75s-1.5,6.25-1.5,10.75
		s7,11.5,7,11.5s-0.75-7.75-0.75-18S49,88.751,49,88.751s20.25,22.5,20.25,42.25S70.75,164.001,47.5,164.001z"/>
</g>
</svg>
