<?xml version="1.0" encoding="UTF-8" standalone="no"?>
<svg
   version="1.1"
   width="1024"
   height="108.79015"
   xmlns="http://www.w3.org/2000/svg"
   style="fill:#FFFFFF"
   xmlns:svg="http://www.w3.org/2000/svg">
  <defs
     id="defs2">
    <rect
       x="82.741013"
       y="147.55479"
       width="198.57841"
       height="104.80528"
       id="rect236-4" />
  </defs>
  <g
     transform="matrix(7.2294149,0,0,7.2294149,-247.01876,-1019.1727)"
     id="g16"
     style="image-rendering:auto">
    <path
       d="m 89.865231,168.47085 v 56.875 h 7.125 v -26.91602 h 22.958989 v -5.75 H 96.990231 v -17.95898 h 27.708989 v -0.004 h 500.51172 v -6.23633 H 124.69922 v -0.01 z m 41.501949,16.58594 v 39.10156 h 4.49805 v -39.10156 z m 63.10547,0 v 4.98437 h 4.8418 v -4.98437 z m 91.55274,0 v 39.10156 H 300.75 c 4.6024,0 8.40213,-1.89064 11.40039,-5.67188 2.99826,-3.80031 4.49805,-8.45945 4.49805,-13.97851 0,-5.4427 -1.53866,-10.04452 -4.61328,-13.80664 -3.07465,-3.76215 -7.37157,-5.64453 -12.89063,-5.64453 z m 37.35352,0 v 4.98437 h 4.84179 v -4.98437 z m 31.71093,0 v 39.10156 h 4.49805 v -15.58203 c 0,-3.17013 0.77344,-5.70118 2.32031,-7.5918 1.56597,-1.89062 3.5037,-2.83594 5.81446,-2.83594 1.26039,0 2.36938,0.3826 3.32421,1.14649 0.97396,0.74479 1.58377,1.63281 1.83204,2.66406 0.26736,1.03125 0.40234,2.57815 0.40234,4.64062 v 17.5586 h 4.49609 v -17.5586 c 0,-2.48261 -0.13303,-4.25043 -0.40039,-5.30078 -0.24826,-1.06944 -0.72504,-2.14781 -1.43164,-3.23632 -0.70659,-1.08854 -1.72962,-1.96637 -3.0664,-2.63477 -1.31771,-0.6684 -2.82577,-1.00391 -4.52539,-1.00391 -3.80034,0 -6.72223,2.04409 -8.76563,6.13086 v -15.49804 z m 184.67969,0 v 39.10156 h 4.49805 v -15.58203 c 0,-3.17013 0.77344,-5.70118 2.32031,-7.5918 1.56597,-1.89062 3.5037,-2.83594 5.81446,-2.83594 1.26039,0 2.36938,0.3826 3.32421,1.14649 0.97396,0.74479 1.58377,1.63281 1.83204,2.66406 0.26736,1.03125 0.40234,2.57815 0.40234,4.64062 v 17.5586 h 4.49609 v -17.5586 c 0,-2.48261 -0.13303,-4.25043 -0.40039,-5.30078 -0.24826,-1.06944 -0.72504,-2.14781 -1.43164,-3.23632 -0.70659,-1.08854 -1.72962,-1.96637 -3.0664,-2.63477 -1.31771,-0.6684 -2.82577,-1.00391 -4.52539,-1.00391 -3.80034,0 -6.72223,2.04409 -8.76563,6.13086 v -15.49804 z m -197.74219,2.49218 -4.18164,0.40235 -0.20117,7.27539 h -5.12695 v 3.52344 h 5.12695 v 17.41601 c 0,5.84374 2.79908,8.76563 8.39453,8.76563 1.16493,0 2.53994,-0.10439 4.125,-0.31446 v -3.55273 c -1.29861,0.21007 -2.46484,0.31641 -3.49609,0.31641 -3.09374,0 -4.64063,-1.4896 -4.64063,-4.46876 v -18.1621 h 6.47461 v -3.52344 h -6.47461 z m -51.10351,1.60547 h 7.93554 c 4.41145,0 7.64845,1.53669 9.71094,4.61133 2.08159,3.07465 3.1211,6.54081 3.1211,10.39844 0,4.75517 -1.08855,8.58356 -3.26563,11.48633 -2.17708,2.90275 -5.36503,4.35547 -9.56641,4.35547 h -7.93554 z m -103.125,5.21289 c -1.47049,0 -2.91103,0.47678 -4.32422,1.43164 -1.3941,0.93577 -2.7895,2.9983 -4.1836,6.1875 v -6.75976 h -3.95312 v 28.93164 h 4.49804 v -15.29688 c 0.11459,-3.01733 0.99241,-5.45228 2.63477,-7.30468 1.64236,-1.85243 3.70487,-2.77735 6.1875,-2.77735 h 0.91602 v -4.29687 c -0.7257,-0.0764 -1.31706,-0.11524 -1.77539,-0.11524 z m 290.21094,0 c -1.47049,0 -2.91298,0.47678 -4.32618,1.43164 -1.39407,0.93577 -2.78754,2.9983 -4.18164,6.1875 v -6.75976 h -3.95312 v 28.93164 h 4.49805 v -15.29688 c 0.11458,-3.01733 0.9924,-5.45228 2.63476,-7.30468 1.64236,-1.85243 3.70487,-2.77735 6.1875,-2.77735 h 0.91602 v -4.29687 c -0.7257,-0.0764 -1.31706,-0.11524 -1.77539,-0.11524 z m -322.32227,0.0566 c -3.72395,0 -6.83618,1.37503 -9.33789,4.125 -2.50173,2.75 -3.75391,6.4269 -3.75391,11.0293 0,4.35416 1.10895,8.00239 3.32422,10.94336 2.23437,2.94097 5.3364,4.41016 9.30859,4.41016 3.93402,0 7.14239,-1.4221 9.625,-4.26758 2.48264,-2.86458 3.72461,-6.54973 3.72461,-11.05664 0,-4.33506 -1.15606,-7.94445 -3.46679,-10.82813 -2.29167,-2.90275 -5.43254,-4.35547 -9.42383,-4.35547 z m 63.47851,0 c -7.50517,0 -11.76324,2.6641 -12.77539,7.99219 l 4.15235,0.7168 c 0.74479,-3.47569 3.40064,-5.21289 7.96484,-5.21289 1.87152,0 3.37956,0.3049 4.52539,0.91601 1.14583,0.61111 1.89063,1.43165 2.23438,2.46289 0.36284,1.01215 0.54492,2.66539 0.54492,4.95703 -1.75694,-0.0764 -3.03776,-0.11523 -3.83985,-0.11523 -5.95829,0 -10.17752,0.94532 -12.66015,2.83594 -2.48263,1.87152 -3.72461,4.26758 -3.72461,7.18945 0,2.40625 0.86958,4.46876 2.60742,6.1875 1.73784,1.71875 4.23006,2.57813 7.47656,2.57813 4.7743,0 8.15452,-1.99504 10.14063,-5.98633 0.17187,2.55902 0.34375,4.29622 0.51562,5.21289 h 4.46875 c -0.42013,-1.69965 -0.63086,-3.56988 -0.63086,-5.61328 V 206.256 c 0,-4.35413 -0.84093,-7.41104 -2.52148,-9.16796 -1.66145,-1.77604 -4.48721,-2.66407 -8.47852,-2.66407 z m 33.31446,0 c -3.74305,0 -6.78777,2.04409 -9.13672,6.13086 v -5.32812 h -4.1836 v 28.93164 h 4.49805 v -15.86914 c 0,-2.99826 0.77346,-5.41472 2.32031,-7.24805 1.56597,-1.83333 3.49547,-2.75 5.78711,-2.75 1.66146,0 3.07338,0.54427 4.23828,1.63281 1.16493,1.08854 1.74805,2.97095 1.74805,5.64453 v 18.58985 h 4.21094 v -16.72852 c 0,-3.64754 -0.28646,-6.1684 -0.85938,-7.5625 -0.55381,-1.39409 -1.59527,-2.64431 -3.12304,-3.75195 -1.50868,-1.12673 -3.34202,-1.69141 -5.5,-1.69141 z m 147.06836,0 c -3.78124,0 -6.75024,2.11981 -8.9082,6.35938 v -5.55664 h -3.86719 v 28.93164 h 4.29687 v -17.30078 c 0,-2.52083 0.70595,-4.60374 2.11914,-6.2461 1.41319,-1.64233 3.07466,-2.46289 4.98438,-2.46289 1.3368,0 2.60742,0.52585 3.81055,1.57617 1.22219,1.05035 1.83203,2.84485 1.83203,5.38477 v 19.04883 h 4.35547 v -16.29883 c 0,-3.22742 0.79188,-5.62348 2.37695,-7.18945 1.60416,-1.58507 3.26565,-2.37891 4.98437,-2.37891 1.24132,0 2.35851,0.3928 3.35157,1.17578 0.99305,0.76389 1.61306,1.61307 1.86132,2.54883 0.26736,0.91666 0.40235,2.30187 0.40235,4.1543 v 17.98828 h 4.38281 v -17.98828 c 0,-2.65451 -0.22917,-4.70877 -0.6875,-6.16016 -0.43923,-1.47048 -1.40495,-2.7678 -2.89453,-3.89453 -1.47048,-1.12673 -3.18924,-1.69141 -5.15625,-1.69141 -4.10589,0 -7.15061,2.31208 -9.13672,6.9336 -0.42014,-1.90972 -1.35721,-3.54254 -2.80859,-4.89844 -1.45139,-1.3559 -3.21724,-2.03516 -5.29883,-2.03516 z m 46.00586,0 c -7.50517,0 -11.7652,2.6641 -12.77735,7.99219 l 4.1543,0.7168 c 0.74479,-3.47569 3.39869,-5.21289 7.96289,-5.21289 1.87153,0 3.38152,0.3049 4.52735,0.91601 1.14581,0.61111 1.89062,1.43165 2.23437,2.46289 0.36285,1.01215 0.54297,2.66539 0.54297,4.95703 -1.75694,-0.0764 -3.03581,-0.11523 -3.83789,-0.11523 -5.95832,0 -10.17948,0.94532 -12.66211,2.83594 -2.48263,1.87152 -3.72266,4.26758 -3.72266,7.18945 0,2.40625 0.86763,4.46876 2.60547,6.1875 1.73784,1.71875 4.23006,2.57813 7.47656,2.57813 4.7743,0 8.15452,-1.99504 10.14063,-5.98633 0.17187,2.55902 0.34375,4.29622 0.51562,5.21289 h 4.46875 c -0.42011,-1.69965 -0.6289,-3.56988 -0.6289,-5.61328 V 206.256 c 0,-4.35413 -0.84093,-7.41104 -2.52149,-9.16796 -1.66143,-1.77604 -4.48722,-2.66407 -8.47851,-2.66407 z m 47.63672,0 c -3.26562,0 -5.8622,0.82249 -7.79102,2.46485 -1.92881,1.62326 -2.89258,3.64694 -2.89258,6.07226 0,2.19618 0.70597,3.96203 2.11914,5.29883 1.4132,1.3368 3.31403,2.23503 5.70118,2.69336 l 6.10156,1.14648 c 3.30381,0.61111 4.95508,2.05168 4.95508,4.32422 0,1.52778 -0.64866,2.71246 -1.94727,3.55274 -1.29861,0.84027 -2.88433,1.25976 -4.75586,1.25976 -5.07983,0 -8.09787,-1.82314 -9.05273,-5.4707 l -4.29688,0.88867 c 1.62326,5.51909 5.86289,8.27735 12.71875,8.27735 3.64756,0 6.56945,-0.81034 8.76563,-2.4336 2.19617,-1.64235 3.29492,-3.7908 3.29492,-6.44531 0,-4.64061 -2.95056,-7.49696 -8.85156,-8.56641 l -5.64258,-1.00195 c -2.99826,-0.55382 -4.49805,-1.90018 -4.49805,-4.03906 0,-1.3559 0.58312,-2.4056 1.74805,-3.15039 1.18402,-0.76389 2.69206,-1.14649 4.52539,-1.14649 3.68575,0 6.12066,1.50806 7.30469,4.52539 l 4.125,-0.88672 c -1.47049,-4.90795 -5.34791,-7.36328 -11.63086,-7.36328 z m 29.30469,0 c -3.80034,0 -6.80817,1.46095 -9.02344,4.38282 -2.19618,2.90275 -3.29297,6.55101 -3.29297,10.94336 0,4.23955 1.03952,7.83051 3.12109,10.77148 2.10069,2.94097 5.14739,4.41016 9.13867,4.41016 2.94097,0 5.39434,-0.89628 7.36133,-2.69141 1.96701,-1.81423 3.23763,-4.31663 3.81055,-7.50586 l -4.06836,-0.7168 c -0.99305,4.81249 -3.35027,7.21875 -7.07422,7.21875 -2.40624,0 -4.27843,-1.02105 -5.61523,-3.06445 -1.31771,-2.06249 -1.97657,-4.94554 -1.97657,-8.65039 0,-3.3611 0.66908,-6.09267 2.00586,-8.19336 1.33681,-2.11979 3.24589,-3.17969 5.72852,-3.17969 3.85763,0 6.16775,2.38784 6.93164,7.16211 l 4.06836,-0.77344 c -0.45833,-2.97913 -1.64304,-5.40582 -3.55273,-7.27734 -1.89062,-1.89062 -4.41149,-2.83594 -7.5625,-2.83594 z m 60.07031,0 c -3.83853,0 -7.02648,1.42408 -9.56641,4.26953 -2.53992,2.82639 -3.81054,6.54018 -3.81054,11.14258 0,4.50694 1.22157,8.15519 3.66601,10.94336 2.44444,2.76909 5.64454,4.15235 9.59766,4.15235 2.99823,0 5.60504,-0.80211 7.82031,-2.40625 2.21527,-1.62326 3.70486,-3.66537 4.46875,-6.12891 l -4.18359,-0.85938 c -1.50868,3.80034 -4.10526,5.69922 -7.79102,5.69922 -2.0434,0 -3.98112,-0.76324 -5.81445,-2.29101 -1.83333,-1.52778 -2.75,-4.47833 -2.75,-8.85156 h 21.02539 c -0.0573,-5.21353 -1.24198,-9.12783 -3.55274,-11.74415 -2.29164,-2.61629 -5.32813,-3.92578 -9.10937,-3.92578 z m 32.74219,0 c -3.74305,0 -6.78777,2.04409 -9.13672,6.13086 v -5.32812 h -4.1836 v 28.93164 h 4.49805 v -15.86914 c 0,-2.99826 0.77346,-5.41472 2.32031,-7.24805 1.56597,-1.83333 3.49547,-2.75 5.78711,-2.75 1.66146,0 3.07338,0.54427 4.23828,1.63281 1.16493,1.08854 1.74805,2.97095 1.74805,5.64453 v 18.58985 h 4.21094 v -16.72852 c 0,-3.64754 -0.28646,-6.1684 -0.85938,-7.5625 -0.55381,-1.39409 -1.59527,-2.64431 -3.12304,-3.75195 -1.50868,-1.12673 -3.34204,-1.69141 -5.5,-1.69141 z m -420.63477,0.80274 v 28.93164 h 4.49804 v -28.93164 z m 128.90625,0 v 28.93164 h 4.49804 v -28.93164 z m 259.13086,2.63476 c 1.66145,0 3.08355,0.45009 4.26758,1.34766 1.18402,0.87847 2.02496,1.94662 2.52148,3.20703 0.49653,1.26041 0.76259,2.70291 0.80078,4.32617 h -15.89843 c 0.19097,-2.71178 1.06055,-4.87044 2.60742,-6.47461 1.56597,-1.60414 3.4668,-2.40625 5.70117,-2.40625 z m -427.19532,0.28711 c 2.17708,0 4.07793,0.90647 5.70117,2.72071 1.62326,1.79511 2.4336,4.69857 2.4336,8.70898 0,3.99131 -0.77346,6.93165 -2.32031,8.82227 -1.54688,1.8906 -3.46616,2.83593 -5.75782,2.83593 -2.27254,0 -4.18164,-0.89627 -5.72851,-2.6914 -1.54687,-1.81423 -2.32032,-4.81381 -2.32032,-8.9961 0,-3.95309 0.77345,-6.83616 2.32032,-8.65039 1.54687,-1.83333 3.4375,-2.75 5.67187,-2.75 z m 66.11328,11.37305 c 0.95486,0 2.35027,0.0573 4.1836,0.17187 0.0573,0.7257 0.0859,1.35591 0.0859,1.89063 0,2.65451 -0.87978,4.96463 -2.63672,6.93164 -1.73785,1.96701 -3.96203,2.95117 -6.67383,2.95117 -2.0052,0 -3.54189,-0.49718 -4.61133,-1.49023 -1.05034,-0.99305 -1.57617,-2.19619 -1.57617,-3.60938 0,-2.23435 0.98416,-3.93468 2.95117,-5.09961 1.96701,-1.16492 4.72529,-1.74609 8.27734,-1.74609 z m 226.38868,0 c 0.95486,0 2.34831,0.0573 4.18164,0.17187 0.0573,0.7257 0.0859,1.35591 0.0859,1.89063 0,2.65451 -0.87783,4.96463 -2.63477,6.93164 -1.73784,1.96701 -3.96203,2.95117 -6.67383,2.95117 -2.00518,0 -3.54384,-0.49718 -4.61328,-1.49023 -1.05034,-0.99305 -1.57422,-2.19619 -1.57422,-3.60938 0,-2.23435 0.98221,-3.93468 2.94922,-5.09961 1.96701,-1.16492 4.72722,-1.74609 8.2793,-1.74609 z"
       transform="matrix(0.26458333,0,0,0.26458333,10.391726,96.401332)"
       id="path14" />
  </g>
</svg>
