<svg version="1.1" viewBox="0 0 148 160" xmlns="http://www.w3.org/2000/svg"
>
    <g transform="translate(0,-137)">
        <path
            d="m24.9 208s-24.1 13.8-24.1 15.9c0 2.14-0.232 72.6-0.232 72.6l147 0.0761 0.346-72.2-18.6-12.7-9.49-62.7-10.7-5.32-64.1-1.78-15.1 6.72z"
            fill="#c9c9c9"/>
    </g>
    <g transform="translate(0,-137)">
        <g transform="translate(-108 56.5)" fill="#ffff00" stroke="#000000" stroke-width="1.5">
            <g fill="#ffff00" stroke="#000000" stroke-width="1.5">
                <path
                    d="m109 240-0.0233-10.5c-0.0268-12.1-0.0236-55.2 5e-3 -60l0.0188-3.22 2.73-1.59c6.57-3.84 10.2-9.15 14.2-20.5 1.29-3.72 1.5-4.75 3.49-16.7 1.83-10.9 2.25-14.1 3.06-22.9 0.515-5.6 1.02-10.3 1.12-10.4 0.274-0.26 15.8-7.96 18-8.96 1.09-0.482 3.06-1.41 4.37-2.06 2.76-1.38 1.57-1.47 10.5 0.811 6.13 1.57 10.2 2.19 16 2.46 4.28 0.197 7.91-0.214 13.3-1.51 1.84-0.442 5.12-1.2 7.28-1.69l3.93-0.884 5.2 2.47c6.06 2.88 19.9 9.6 20 9.72 0.048 0.048 0.389 4.09 0.758 8.99 0.822 10.9 1.82 17.7 4.66 31.7 1.07 5.27 3.07 11.6 5.25 16.6 1.34 3.09 6.88 10.2 10.9 14.1l2.09 1.98 0.0622 35.9c0.0342 19.7-0.104 36.1-0.104 36.1zm147-23.8h-73.5l-73.3 0.0731v10.5h147zm0.0283-24.5-28.2-0.241-0.0674-27.2-0.0674-27.2 1.39-0.08 1.39-0.08 0.0716-5.34 0.0716-5.34-1.39-0.0802-1.39-0.0802 0.119-33.5-10.7-5.32-0.277 38.9h-68.5l0.293-39.3-10.7 5.39-0.471 33.9-1.26 0.0806-1.26 0.0806v10.8h2.65l-0.0674 27.2-0.0674 27.2-28.5 0.0186-0.0575 10.8 147 0.0953zm-108-27.4v-27.3h68.8l-0.0674 27.2-0.0674 27.2-34.3 0.0671-34.3 0.0671z"
                    fill="#0000ff" stroke="#000000" stroke-width="1.5"/>
            </g>
        </g>
    </g>
</svg>
