<?xml version="1.0" encoding="UTF-8"?>
<svg width="540" height="540" version="1.1" xmlns="http://www.w3.org/2000/svg" xmlns:xlink="http://www.w3.org/1999/xlink">
  <rect x="8.5449e-6" y="8.5449e-6" width="540" height="540" fill="#039"/>
  <path id="a" d="m270 60-6.7344 20.729h-21.797l17.633 12.812-6.7344 20.73 17.633-12.812 17.633 12.812-6.7344-20.73 17.633-12.812h-21.795z" fill="#fc0" stroke-width="30"/>
  <g id="c">
    <use transform="translate(90 24.109)" xlink:href="#a"/>
    <use transform="translate(155.88 89.999)" xlink:href="#a"/>
    <use transform="translate(180 180)" xlink:href="#a"/>
    <use transform="translate(155.88 270)" xlink:href="#a"/>
    <use transform="translate(90 335.88)" xlink:href="#a"/>
  </g>
  <use transform="translate(0,360)" xlink:href="#a"/>
  <use transform="matrix(-1 0 0 1 540 .000225)" xlink:href="#c"/>
  <path id="b" d="m209.1 256.09h-17.34v-9.462c12.48-0.033 19.86-4.35 22.17-12.963h9.45v72.33h-14.28z" fill="#fc0"/>
  <path d="m350.58 293.25v12.75h-49.14c0.21-5.19 1.11-9.579 2.64-13.197 1.47-3.453 3.63-6.477 6.42-9.066 1.35-1.296 3.9-3.27 7.62-5.925 5.85-4.185 9.96-7.374 12.33-9.564 2.19-2.025 3.78-4.017 4.74-5.976s1.44-4.266 1.44-6.924c0-3.585-0.96-6.474-2.88-8.664-1.77-1.995-4.23-2.991-7.38-2.991-3.72 0-6.39 1.329-8.07 3.987-1.47 2.424-2.22 5.379-2.22 8.865 0 0.498 0 1.26 0.03 2.289h-13.74c-0.03-1.194-0.06-2.058-0.06-2.589 0-6.639 1.68-12.12 5.04-16.425 4.02-5.13 10.29-7.68 18.78-7.68 7.68 0 13.71 2.07 18.12 6.24 4.47 4.17 6.69 9.747 6.69 16.719 0 5.679-1.77 10.659-5.28 14.943-2.07 2.523-5.73 5.694-10.95 9.513-5.49 4.017-9.06 6.804-10.71 8.367-1.86 1.758-3.21 3.534-4.05 5.328z" fill="#fc0"/>
  <use transform="translate(56.76)" xlink:href="#b"/>
</svg>
