<svg version="1.0" xmlns="http://www.w3.org/2000/svg" viewBox="0 0 912.000000 1280.000000" preserveAspectRatio="xMidYMid meet">
    <g transform="translate(0.000000,1280.000000) scale(0.100000,-0.100000)" fill="#000000" stroke="none">
        <path
            d="M4367 12489 c-475 -23 -784 -97 -1127 -269 -420 -210 -856 -594 -1097 -967 -22 -33 -54 -79 -71 -100 -125 -158 -319 -562 -427 -887 -74 -223 -99 -326 -140 -577 -58 -357 -68 -543 -39 -737 54 -363 147 -689 299 -1038 69 -158 195 -405 261 -509 31 -49 107 -181 169 -291 111 -199 275 -465 405 -659 183 -274 689 -1001 754 -1085 l74 -95 -25 -50 c-14 -27 -68 -126 -121 -220 -52 -93 -196 -366 -319 -605 -124 -239 -265 -510 -315 -602 -104 -195 -341 -687 -435 -903 -36 -82 -89 -204 -118 -270 -51 -117 -225 -603 -225 -630 0 -7 58 -84 128 -172 71 -87 153 -192 183 -233 30 -42 111 -150 181 -240 70 -91 191 -248 269 -350 605 -788 601 -784 617 -764 7 11 47 87 87 169 40 83 296 600 570 1150 273 550 580 1167 680 1370 101 204 193 379 205 390 22 20 22 20 43 -9 24 -31 238 -379 322 -521 29 -49 171 -286 315 -525 145 -239 354 -586 465 -770 111 -184 293 -486 405 -670 111 -184 218 -361 237 -392 19 -32 37 -58 41 -58 4 0 20 21 37 48 16 26 119 184 229 352 109 168 300 463 424 655 123 193 291 451 373 575 82 124 149 235 149 245 0 11 -10 36 -21 55 -12 19 -54 109 -94 200 -115 260 -135 301 -296 612 -354 682 -750 1328 -1376 2243 -49 72 -94 144 -100 162 -11 31 -5 42 244 430 141 219 324 504 408 633 178 274 360 567 432 695 79 141 237 461 292 591 181 432 295 943 306 1369 4 155 2 185 -25 339 -113 642 -320 1135 -705 1681 -208 295 -331 435 -490 556 -101 77 -414 283 -522 344 -254 141 -568 252 -848 299 -129 22 -374 46 -447 44 -35 0 -134 -5 -221 -9z m588 -1654 c372 -44 700 -157 1030 -355 128 -77 197 -129 220 -164 13 -20 9 -38 -49 -202 -180 -507 -371 -917 -627 -1346 -126 -210 -477 -739 -699 -1053 -90 -126 -199 -283 -242 -347 -43 -65 -82 -118 -86 -118 -4 1 -124 147 -267 326 -143 180 -316 394 -384 478 -143 175 -171 215 -353 511 -290 471 -491 892 -673 1409 -63 178 -75 222 -67 240 25 56 295 245 488 344 366 186 686 263 1224 296 104 6 354 -4 485 -19z"/>
    </g>
</svg>
