<svg version="1.1" xmlns="http://www.w3.org/2000/svg" viewBox="0 0 128 128">
    <g id="a" clip-path="url(#b)">
        <path
            d="M18148,7844.009a63.64,63.64,0,0,1-35.779-10.933c-1.1-.739-2.191-1.526-3.246-2.34l24.221-24.22h60.469l-21.971-38.5,27.035-27.035c.816,1.059,1.6,2.148,2.34,3.236a63.98,63.98,0,0,1-7.811,81.042,64.777,64.777,0,0,1-9.475,7.816,63.6,63.6,0,0,1-35.783,10.933Zm-55.738-32.539h0a64.389,64.389,0,0,1-3.229-6.553,63.964,63.964,0,0,1,5.9-60.7,65.181,65.181,0,0,1,7.82-9.47,64.057,64.057,0,0,1,20.344-13.716,64.17,64.17,0,0,1,49.82,0,64.153,64.153,0,0,1,6.555,3.227l-20.848,20.851-10.787-18.9-39.48,69.167-16.092,16.1Z"
            transform="translate(-18084 -7716.004)" fill="#8d8d8d" stroke="rgba(0,0,0,0)" stroke-miterlimit="10"
            stroke-width="1"/>
        <path d="M18119.111,7796.314l38.5-38.5,3.635,6.37-32.127,32.128Z" transform="translate(-18069.914 -7705.8)"
              fill="#bfbfbf" stroke="rgba(0,0,0,0)" stroke-miterlimit="10" stroke-width="1"/>
        <path
            d="M18112.219,7833.075c-1.1-.74-2.187-1.525-3.242-2.338l24.221-24.221h10l-28.283,28.285Q18113.547,7833.972,18112.219,7833.075Zm59.475-65.053,27.039-27.037c.813,1.06,1.6,2.147,2.338,3.234q.9,1.328,1.725,2.7l-27.467,27.469Z"
            transform="translate(-18084 -7716.004)" fill="#444" stroke="rgba(0,0,0,0)" stroke-miterlimit="10"
            stroke-width="1"/>
        <rect width="134" height="134" transform="translate(-4 -4)" fill="none"/>
        <rect width="157.692" height="12.719" transform="translate(5.092 116.632) rotate(-45)" fill="#8d8d8d"/>
    </g>
</svg>
