<svg xmlns="http://www.w3.org/2000/svg" viewBox="0 0 21 29">
    <g fill="none" fill-rule="evenodd">
        <path d="M19 5.809L13.262.005H1.912S.049-.18 0 1.793v22.879l1.626 2.277L16.928 27l2.008-2.227L19 5.809z" transform="translate(1 1)"/>
        <path d="M14.285 24H3.715C2.77 24 2 23.216 2 22.258V11.742C2 10.784 2.771 10 3.715 10h10.57c.944 0 1.715.784 1.715 1.742v10.516c0 .958-.771 1.742-1.715 1.742zM2 13.5L16 13.5M2 19.5L16 19.5M6.5 10L6.5 14M11.5 10L11.5 14M6.5 20L6.5 24M11.5 20L11.5 24" transform="translate(1 1)"/>
    </g>
</svg>