<svg xmlns="http://www.w3.org/2000/svg" viewBox="0 0 41 34">
    <path fill="none" d="M39.572 1.432C39.286 1.144 38.947 1 38.556 1H15.445c-.391 0-.73.144-1.016.432-.286.288-.429.629-.429 1.023v4.363H10.39c-.406 0-.847.099-1.32.296-.475.197-.854.439-1.14.727l-4.47 4.5c-.195.197-.364.424-.507.682-.143.257-.248.488-.316.693-.067.204-.117.484-.146.84-.03.357-.05.618-.057.785-.007.167-.007.455 0 .864.008.41.011.674.011.795v7.273c-.39 0-.73.144-1.015.432-.286.287-.429.629-.429 1.022 0 .227.03.428.09.602.06.175.162.315.305.421.143.106.267.193.372.262.106.068.283.113.53.136l.509.046c.09.007.282.007.575 0 .294-.008.463-.012.508-.012h1.444c0 1.606.565 2.977 1.693 4.113C8.155 32.432 9.516 33 11.111 33c1.595 0 2.957-.568 4.085-1.705 1.129-1.136 1.693-2.507 1.693-4.113h8.667c0 1.606.564 2.977 1.692 4.113C28.377 32.432 29.738 33 31.333 33c1.596 0 2.957-.568 4.085-1.705 1.129-1.136 1.693-2.507 1.693-4.113.045 0 .214.004.508.012.293.007.485.007.575 0l.508-.046c.248-.023.425-.068.53-.136.106-.069.23-.156.373-.262.143-.106.245-.246.305-.42.06-.175.09-.376.09-.603V2.455c0-.394-.143-.735-.428-1.023zm-26.43 27.795c-.571.576-1.249.864-2.031.864-.783 0-1.46-.288-2.031-.864-.572-.575-.858-1.257-.858-2.045s.286-1.47.858-2.046c.571-.575 1.248-.863 2.03-.863.783 0 1.46.288 2.032.863.572.576.858 1.258.858 2.046 0 .788-.286 1.47-.858 2.045zM14 15.546H5.333v-.682c0-.197.068-.364.203-.5l4.401-4.432c.136-.136.301-.204.497-.204H14v5.818zm19.364 13.681c-.571.576-1.248.864-2.03.864-.783 0-1.46-.288-2.032-.864-.572-.575-.858-1.257-.858-2.045s.286-1.47.858-2.046c.571-.575 1.249-.863 2.031-.863.783 0 1.46.288 2.031.863.572.576.858 1.258.858 2.046 0 .788-.285 1.47-.858 2.045z"/>
</svg>