<svg xmlns="http://www.w3.org/2000/svg">
  <defs>
    <style>
    .img { display: none }
    .img:target { display: inline }
        </style>
  </defs>
  <svg viewBox="0 0 50 30" preserveAspectRatio="xMinYMid" width="200" height="120">
    <g id="car" class="img" style="fill: #d1e3f9;">
    <path d="M37.929 11.306h-.923l-6.279-7.849a3.696 3.696 0 00-2.885-1.386H15.495c-1.51 0-2.869.919-3.43 2.322L9.3 11.436A3.686 3.686 0 006.529 15v6.465c0 .51.414.923.924.923h2.771a5.54 5.54 0 1011.082 0h7.388a5.54 5.54 0 1011.082 0h2.771c.51 0 .924-.413.924-.923v-4.618a5.541 5.541 0 00-5.542-5.541zM15.765 25.159a2.774 2.774 0 01-2.771-2.771 2.773 2.773 0 012.771-2.77 2.772 2.772 0 012.77 2.77 2.773 2.773 0 01-2.77 2.771zm4.156-13.853h-6.642l2.216-5.541h4.426v5.541zm2.77 0V5.765h5.151l4.433 5.541h-9.584zm11.544 13.853a2.773 2.773 0 01-2.77-2.771 2.772 2.772 0 012.77-2.77 2.773 2.773 0 012.771 2.77 2.774 2.774 0 01-2.771 2.771z"/>
    </g>
  </svg>
  <svg viewBox="0 0 50 30" preserveAspectRatio="xMinYMid" width="40" height="30">
    <g id="check" class="img" style="fill: #00C896;">
    <path d="M19.418 27.47L8.104 16.156a1.74 1.74 0 010-2.461l2.461-2.462a1.74 1.74 0 012.462 0l7.621 7.621L36.973 2.53a1.74 1.74 0 012.462 0l2.461 2.462a1.74 1.74 0 010 2.461L21.879 27.47a1.74 1.74 0 01-2.461 0z"/>
    <!-- <path d="M6.402,17.164L-0.098,10.664C-0.488,10.274 -0.488,9.641 -0.098,9.25L1.316,7.836C1.707,7.445 2.34,7.445 2.731,7.836L7.109,12.214L16.488,2.836C16.879,2.445 17.512,2.445 17.902,2.836L19.316,4.25C19.707,4.641 19.707,5.274 19.316,5.664L7.816,17.164C7.426,17.555 6.793,17.555 6.402,17.164Z"/>-->
    </g>
  </svg>
  <svg viewBox="0 0 50 30" preserveAspectRatio="xMinYMid" width="200" height="120">
    <g id="exclamationcircle" class="img" style="fill: #F0CAC7;">
    <path d="M38.04 15c0 7.203-5.839 13.04-13.04 13.04-7.201 0-13.04-5.837-13.04-13.04 0-7.199 5.839-13.04 13.04-13.04 7.201 0 13.04 5.841 13.04 13.04zM25 17.629a2.419 2.419 0 100 4.838 2.419 2.419 0 000-4.838zm-2.296-8.694l.39 7.151a.63.63 0 00.63.597h2.552a.63.63 0 00.63-.597l.39-7.151a.63.63 0 00-.63-.665h-3.332a.63.63 0 00-.63.665z"/>
    </g>
  </svg>
  <svg viewBox="0 0 50 30" preserveAspectRatio="xMinYMid" width="250" height="230">
    <g id="flag" class="img" style="fill: #F2EBEC;">
    <path d="M24.15 11.648v3.455c1.324.299 2.501.791 3.734 1.131v-3.46c-1.319-.294-2.506-.786-3.734-1.126zm11.328-6.24c-1.74.807-3.88 1.618-5.935 1.618-2.714 0-4.962-1.765-8.381-1.765a9.85 9.85 0 00-3.449.609c.142-.371.208-.771.182-1.198a2.855 2.855 0 00-2.719-2.658 2.842 2.842 0 00-1.74 5.17v19.587c0 .674.543 1.217 1.217 1.217h.812c.675 0 1.218-.543 1.218-1.217v-4.789c1.435-.614 3.226-1.121 5.803-1.121 2.719 0 4.962 1.765 8.381 1.765 2.445 0 4.398-.827 6.215-2.075.441-.304.7-.801.7-1.339V6.879c.005-1.182-1.228-1.968-2.304-1.471zM20.416 18.527a15.99 15.99 0 00-3.733.842v-3.576c1.329-.472 2.409-.761 3.733-.883v3.617zm14.936-6.823c-1.198.497-2.349.989-3.734 1.212v3.607c1.258-.172 2.607-.598 3.734-1.319v3.577c-1.274.816-2.461 1.253-3.734 1.374v-3.632c-1.37.188-2.43.076-3.734-.284v3.419c-1.212-.375-2.4-.847-3.734-1.08v-3.475c-.999-.224-2.07-.345-3.734-.193v-3.551c-1.136.157-2.262.517-3.733 1.06V8.842c1.684-.618 2.541-1.004 3.733-1.116v3.633c1.37-.188 2.456-.066 3.734.289V8.229c1.203.375 2.395.847 3.734 1.08v3.47c1.202.269 2.415.35 3.734.137V9.269c1.37-.244 2.653-.69 3.734-1.142v3.577z" />
    </g>
  </svg>
  <svg viewBox="0 0 50 30" preserveAspectRatio="xMinYMid" width="250" height="230">
    <g id="folder" class="img" style="fill: #C3EDE1;">
    <path d="M38.409 16.7l-3.411 5.847a3.019 3.019 0 01-2.604 1.496H13.556a1.13 1.13 0 01-.976-1.7l3.411-5.848A3.019 3.019 0 0118.595 15h18.837c.873 0 1.416.946.977 1.7zm-19.814-3.207h15.448v-2.261a2.261 2.261 0 00-2.261-2.261h-7.536l-3.014-3.014h-7.536a2.26 2.26 0 00-2.26 2.261v13.095l3.253-5.577a4.536 4.536 0 013.906-2.243z"/>
    </g>
  </svg>
  <svg viewBox="0 0 576 512" preserveAspectRatio="xMinYMid" width="250" height="125">
    <g id="inbox" class="img" style="fill: #d1e3f9;">
    <path d="M567.938 243.908L462.25 85.374A48.003 48.003 0 00422.311 64H153.689a48 48 0 00-39.938 21.374L8.062 243.908A47.994 47.994 0 000 270.533V400c0 26.51 21.49 48 48 48h480c26.51 0 48-21.49 48-48V270.533a47.994 47.994 0 00-8.062-26.625zM162.252 128h251.497l85.333 128H376l-32 64H232l-32-64H76.918l85.334-128z"/>
    </g>
  </svg>
</svg>