<svg xmlns="http://www.w3.org/2000/svg">
  <defs>
    <style>
    .img { display: none }
    .img:target { display: inline }
        </style>
  </defs>
  <svg viewBox="0 0 55 50" preserveAspectRatio="xMinYMid" width="70" height="50">
    <g id="check" class="img" style="fill: green;">
    <path d="M6.402,17.164L-0.098,10.664C-0.488,10.274 -0.488,9.641 -0.098,9.25L1.316,7.836C1.707,7.445 2.34,7.445 2.731,7.836L7.109,12.214L16.488,2.836C16.879,2.445 17.512,2.445 17.902,2.836L19.316,4.25C19.707,4.641 19.707,5.274 19.316,5.664L7.816,17.164C7.426,17.555 6.793,17.555 6.402,17.164Z"/>
    </g>
  </svg>
  <svg viewBox="0 0 55 50" preserveAspectRatio="xMinYMid" width="70" height="50">
    <g id="times" class="img" style="fill: red;">
    <path d="M12.216,10L16.125,6.091C16.604,5.611 16.604,4.834 16.125,4.354L15.256,3.485C14.776,3.005 13.998,3.005 13.518,3.485L9.609,7.394L5.7,3.485C5.221,3.005 4.443,3.005 3.963,3.485L3.094,4.354C2.614,4.833 2.614,5.611 3.094,6.091L7.003,10L3.094,13.909C2.614,14.389 2.614,15.166 3.094,15.646L3.963,16.515C4.443,16.995 5.221,16.995 5.7,16.515L9.609,12.606L13.518,16.515C13.998,16.995 14.776,16.995 15.256,16.515L16.125,15.646C16.604,15.167 16.604,14.389 16.125,13.909L12.216,10Z"/>
    </g>
  </svg>
</svg>