<?xml version="1.0" encoding="UTF-8" standalone="no"?>
<svg
   xmlns:dc="http://purl.org/dc/elements/1.1/"
   xmlns:cc="http://creativecommons.org/ns#"
   xmlns:rdf="http://www.w3.org/1999/02/22-rdf-syntax-ns#"
   xmlns:svg="http://www.w3.org/2000/svg"
   xmlns="http://www.w3.org/2000/svg"
   viewBox="0 0 974.59998 652.90668"
   height="652.90668"
   width="974.59998"
   xml:space="preserve"
   id="svg2"
   version="1.1"><metadata
     id="metadata8"><rdf:RDF><cc:Work
         rdf:about=""><dc:format>image/svg+xml</dc:format><dc:type
           rdf:resource="http://purl.org/dc/dcmitype/StillImage" /></cc:Work></rdf:RDF></metadata><defs
     id="defs6" /><g
     transform="matrix(1.3333333,0,0,-1.3333333,0,652.90667)"
     id="g10"><g
       transform="scale(0.1)"
       id="g12"><path
         id="path14"
         style="fill:#f36717;fill-opacity:1;fill-rule:nonzero;stroke:none"
         d="m 4020.45,3910.89 c 0,385.59 -157.28,734.36 -411.09,985.94 l -98.17,-98.17 c 228.68,-226.45 370.43,-540.5 370.43,-887.77 0,-345.51 -140.25,-658.25 -366.91,-884.42 l 98.17,-98.17 c 251.76,251.31 407.57,598.76 407.57,982.59 m -277.64,0 c 0,308.92 -126.23,588.28 -329.79,789.61 l -98.17,-98.17 c 178.46,-176.2 289.12,-420.87 289.12,-691.44 0,-268.83 -109.19,-512.14 -285.6,-688.09 l 98.17,-98.16 c 201.54,201.07 326.27,479.09 326.27,786.25 m -277.68,0 c 0,232.25 -95.24,442.08 -248.53,593.16 l -98.17,-98.17 c 128.19,-125.95 207.86,-301.09 207.86,-494.99 0,-192.16 -78.1,-366.04 -204.28,-491.73 l 98.17,-98.16 c 151.28,150.81 244.95,359.4 244.95,589.89" /><path
         id="path16"
         style="fill:#f36717;fill-opacity:1;fill-rule:nonzero;stroke:none"
         d="m 1246.39,3910.89 c 0,385.59 157.29,734.36 411.09,985.94 l 98.17,-98.17 c -228.68,-226.45 -370.42,-540.5 -370.42,-887.77 0,-345.51 140.24,-658.25 366.91,-884.42 l -98.17,-98.17 c -251.77,251.31 -407.58,598.76 -407.58,982.59 m 277.65,0 c 0,308.92 126.22,588.28 329.78,789.61 l 98.17,-98.17 c -178.45,-176.2 -289.11,-420.87 -289.11,-691.44 0,-268.83 109.18,-512.14 285.59,-688.09 l -98.17,-98.16 c -201.54,201.07 -326.26,479.09 -326.26,786.25 m 277.67,0 c 0,232.25 95.24,442.08 248.54,593.16 l 98.17,-98.17 c -128.2,-125.95 -207.87,-301.09 -207.87,-494.99 0,-192.16 78.1,-366.04 204.28,-491.73 L 2046.66,3321 c -151.28,150.81 -244.95,359.4 -244.95,589.89" /><path
         id="path18"
         style="fill:#f36717;fill-opacity:1;fill-rule:nonzero;stroke:none"
         d="m 5178.21,2521.75 c 76.38,17.63 99.9,55.84 99.9,102.86 0,14.69 -2.93,38.18 -2.93,38.18 h -631.79 c -14.69,-32.32 -32.32,-70.51 -32.32,-96.97 0,-17.63 11.75,-26.44 41.13,-32.33 l 170.44,-41.13 V 1305.18 h -5.89 l -905.07,1357.61 h -578.9 c -11.74,-32.32 -32.32,-70.51 -32.32,-96.97 0,-17.63 11.77,-26.44 41.14,-32.33 l 173.38,-41.13 V 811.512 l -117.55,-29.391 c -76.39,-20.558 -99.9,-61.699 -99.9,-108.719 0,-14.703 2.93,-38.211 2.93,-38.211 h 646.48 c 11.77,35.258 32.32,73.461 32.32,99.911 0,17.64 -8.82,26.461 -41.13,35.269 l -193.95,41.141 V 2222.02 h 5.88 L 4810.87,635.191 h 240.97 V 2492.36 Z m 1270.24,161.62 -270.34,-26.44 -708.19,-1848.379 -105.78,-26.43 c -76.42,-17.629 -99.94,-61.699 -99.94,-108.719 0,-14.703 2.96,-38.211 2.96,-38.211 h 681.73 c 11.77,26.45 32.33,70.532 32.33,96.981 0,17.617 -8.81,29.391 -41.14,35.25 l -226.27,38.199 176.32,505.449 h 658.24 l 167.5,-499.558 -99.92,-29.391 c -76.39,-20.558 -99.9,-61.699 -99.9,-108.719 0,-14.703 2.93,-38.211 2.93,-38.211 h 758.15 c 14.7,35.258 32.33,73.461 32.33,99.911 0,17.64 -8.82,26.461 -41.15,35.269 l -138.1,32.32 z m -220.39,-426.1 255.66,-755.21 h -528.94 l 267.4,755.21 h 5.88" /><path
         id="path20"
         style="fill:#f36717;fill-opacity:1;fill-rule:nonzero;stroke:none"
         d="m 2947.89,2521.75 c 76.39,17.63 99.9,55.84 99.9,102.86 0,14.69 -2.93,38.18 -2.93,38.18 h -799.28 c -11.77,-32.32 -32.33,-70.51 -32.33,-96.97 0,-17.63 11.74,-26.44 41.14,-32.33 l 173.36,-41.13 V 811.512 l -117.53,-29.391 c -76.41,-20.558 -99.92,-61.699 -99.92,-108.719 0,-14.703 2.95,-38.211 2.95,-38.211 h 808.1 c 14.7,35.258 32.33,73.461 32.33,99.911 0,17.64 -8.82,26.461 -41.14,35.269 l -191.02,41.141 V 2492.36 l 126.37,29.39" /><path
         id="path22"
         style="fill:#f36717;fill-opacity:1;fill-rule:nonzero;stroke:none"
         d="m 1881.24,2521.75 c 76.39,17.63 99.9,55.84 99.9,102.86 0,14.69 -2.93,38.18 -2.93,38.18 h -631.78 c -14.7,-32.32 -32.33,-70.51 -32.33,-96.97 0,-17.63 11.74,-26.44 41.14,-32.33 l 170.43,-41.13 V 1305.18 h -5.88 L 614.715,2662.79 H 35.8164 c -11.7461,-32.32 -32.32421,-70.51 -32.32421,-96.97 0,-17.63 11.74221,-26.44 41.13671,-32.33 L 218.016,2492.36 V 811.512 L 100.465,782.121 C 24.0703,761.563 0.5625,720.422 0.5625,673.402 c 0,-14.703 2.92969,-38.211 2.92969,-38.211 H 649.969 c 11.769,35.258 32.324,73.461 32.324,99.911 0,17.64 -8.813,26.461 -41.137,35.269 L 447.215,811.512 V 2222.02 h 5.887 L 1513.91,635.191 h 240.96 V 2492.36 l 126.37,29.39" /><path
         id="path24"
         style="fill:#f36717;fill-opacity:1;fill-rule:nonzero;stroke:none"
         d="m 3188.74,3910.96 c 0,-306.69 -248.63,-555.32 -555.32,-555.32 -306.69,0 -555.32,248.63 -555.32,555.32 0,306.69 248.63,555.32 555.32,555.32 306.69,0 555.32,-248.63 555.32,-555.32" /><path
         id="path26"
         style="fill:#254aa5;fill-opacity:1;fill-rule:nonzero;stroke:none"
         d="m 2233.48,3676.18 399.62,694.28 399.64,-694.28 z" /><path
         id="path28"
         style="fill:#254aa5;fill-opacity:1;fill-rule:nonzero;stroke:none"
         d="m 240.844,323.031 c 9.937,2.309 13.008,6.899 13.008,13.008 0,1.91 -0.399,4.203 -0.399,4.203 H 173.57 c -1.922,-3.453 -4.218,-8.043 -4.218,-11.461 0,-2.301 1.523,-3.441 5.363,-4.222 l 22.926,-5.34 V 149.492 h -0.77 L 71.8633,340.242 H 4.58984 c -1.52343,-3.453 -4.195309,-8.043 -4.195309,-11.461 0,-2.301 1.523439,-3.441 5.343749,-4.222 l 23.32422,-5.34 V 98.25 L 13.0039,94.4219 c -9.93749,-2.293 -13.00780625,-7.6406 -13.00780625,-13.75 0,-1.9219 0.39843725,-4.2031 0.39843725,-4.2031 H 81.8008 c 1.5469,3.8203 4.2187,8.7929 4.2187,12.2109 0,2.3008 -1.1484,3.4492 -5.3672,4.2226 L 55.0586,98.25 v 193.051 h 0.7461 L 196.871,76.4688 h 26.766 V 319.219 Z m 127.304,-57.332 c -48.543,0 -94.418,-34.398 -94.418,-99 0,-64.23 39.379,-94.8279 87.149,-94.8279 46.644,0 92.894,32.4879 92.894,98.6489 0,66.492 -37.832,95.179 -85.625,95.179 m -4.593,-22.57 c 28.289,0 49.316,-23.699 49.316,-74.906 0,-51.243 -21.027,-73.4222 -49.316,-73.4222 -28.274,0 -48.922,22.9492 -48.922,74.1602 0,51.621 20.648,74.168 48.922,74.168 m 234.351,17.98 h -56.582 v 51.61 h -28.293 l -8.789,-51.61 -18.73,-4.597 c -7.266,-1.52 -11.86,-5.711 -11.86,-12.981 0,-1.152 0.395,-3.441 0.395,-3.441 h 28.668 V 121.57 c 0,-29.4411 13.758,-49.6989 48.543,-49.6989 34.785,0 48.176,17.9609 48.176,21.7812 0,3.8477 -1.528,9.5707 -3.45,12.6367 -3.046,-2.68 -15.281,-9.1874 -30.187,-9.1874 -19.129,0 -24.473,14.1604 -24.473,31.3594 V 240.09 h 52.364 z m 132.274,0 h -50.864 c 0,0 -0.753,24.473 -0.753,36.313 0,22.57 5.722,31.738 22.179,31.738 11.836,0 21.774,-7.269 25.219,-11.101 5.742,3.062 11.461,8.421 11.461,17.98 0,11.852 -7.641,20.262 -26.742,20.262 -32.887,0 -70.348,-29.821 -70.348,-91.371 v -3.821 l -16.828,-4.597 c -7.266,-1.891 -11.84,-5.711 -11.84,-12.981 0,-1.152 0.379,-3.441 0.379,-3.441 h 28.289 V 97.1016 l -13.008,-4.5703 c -7.265,-2.6993 -11.836,-5.75 -11.836,-12.6407 0,-1.1406 0.375,-3.4218 0.375,-3.4218 h 90.992 c 1.153,1.1406 3.825,6.871 3.825,10.6914 0,3.0703 -1.524,4.2109 -5.367,4.9687 l -25.997,4.9727 V 240.09 h 46.645 z m 152.523,-61.55 c 0,43.191 -19.5,66.14 -61.551,66.14 -35.562,0 -66.898,-17.98 -66.898,-41.668 0,-11.859 7.266,-17.98 20.254,-17.98 3.07,0 8.789,0.39 8.789,0.39 1.922,12.989 4.969,26.379 8.414,33.649 3.07,1.14 10.711,3.812 19.5,3.812 23.699,0 32.891,-13.761 32.891,-48.543 v -17.207 h -9.942 c -42.824,0 -87.551,-15.3 -87.551,-56.211 0,-30.1793 20.633,-50.0699 49.696,-50.0699 31.738,0 45.871,20.2578 50.066,27.5195 h 0.777 c 3.442,-19.1015 14.532,-26.7695 32.11,-26.7695 24.847,0 34.785,14.9414 34.785,19.9102 0,3.4101 -2.672,8.7887 -4.59,11.4607 -1.129,-1.922 -5.723,-6.492 -14.512,-6.492 -6.519,0 -12.238,4.57 -12.238,19.871 z m -38.601,-40.137 v -43.59 c -4.973,-6.133 -16.832,-16.4414 -32.516,-16.4414 -15.652,0 -24.844,10.7114 -24.844,26.7694 0,20.25 17.578,31.352 48.547,32.871 z M 988.586,354 936.598,349.031 c -9.168,-0.769 -14.137,-5.34 -14.137,-11.851 0,-1.528 0.375,-4.2 0.375,-4.2 l 27.144,-3.82 V 97.1016 l -13.382,-4.5703 c -7.274,-2.3008 -11.844,-5.75 -11.844,-12.6407 0,-1.1406 0.379,-3.4218 0.379,-3.4218 h 87.147 c 1.15,1.1406 3.85,6.871 3.85,10.6914 0,3.0703 -1.55,4.2109 -5.37,4.9687 l -22.174,4.9727 z m 109.724,0 -51.99,-4.969 c -9.19,-0.769 -14.16,-5.34 -14.16,-11.851 0,-1.528 0.4,-4.2 0.4,-4.2 l 27.14,-3.82 V 97.1016 l -13.38,-4.5703 c -7.27,-2.3008 -11.86,-5.75 -11.86,-12.6407 0,-1.1406 0.37,-3.4218 0.37,-3.4218 h 87.18 c 1.14,1.1406 3.81,6.871 3.81,10.6914 0,3.0703 -1.52,4.2109 -5.34,4.9687 l -22.17,4.9727 z M 1258.1,205.301 H 1153.34 V 181.23 h 104.76 z m 119.64,117.73 c 9.94,2.309 13.01,6.899 13.01,13.008 0,1.91 -0.38,4.203 -0.38,4.203 h -95.59 c -1.52,-3.453 -4.19,-8.043 -4.19,-11.461 0,-2.301 1.52,-3.441 5.34,-4.222 l 23.33,-5.34 V 98.25 l -16.06,-3.8281 c -9.94,-2.293 -12.99,-7.6406 -12.99,-13.75 0,-1.9219 0.38,-4.2031 0.38,-4.2031 h 96.71 c 1.53,3.8203 4.22,8.7929 4.22,12.2109 0,2.3008 -1.15,3.4492 -5.37,4.2226 L 1360.56,98.25 V 319.219 Z M 1601.38,198.41 c 0,43.199 -20.65,67.289 -58.11,67.289 -35.16,0 -52.36,-17.98 -62.7,-29.058 h -1.15 l 2.3,26.769 -51.99,-4.98 c -9.17,-0.77 -14.13,-5.36 -14.13,-11.848 0,-1.519 0.37,-3.832 0.37,-3.832 l 27.14,-4.187 V 97.1016 l -13.38,-4.5703 c -7.27,-2.6993 -11.84,-5.75 -11.84,-12.6407 0,-1.1406 0.38,-3.4218 0.38,-3.4218 h 86.77 c 0.77,1.1406 3.82,6.871 3.82,10.6914 0,3.0703 -1.52,4.2109 -5.34,4.9687 l -21.8,4.9727 V 219.43 c 8.04,6.5 22.17,16.84 43.97,16.84 18.73,0 37.08,-9.938 37.08,-42.43 V 97.1016 l -12.6,-4.5703 c -7.27,-2.3008 -11.86,-5.75 -11.86,-12.6407 0,-1.1406 0.37,-3.4218 0.37,-3.4218 h 86.8 c 0.75,1.1406 3.82,6.871 3.82,10.6914 0,3.0703 -1.55,4.2109 -5.37,4.9687 l -22.55,4.9727 z m 159.42,62.699 h -50.84 c 0,0 -0.78,24.473 -0.78,36.313 0,22.57 5.75,31.738 22.18,31.738 11.86,0 21.79,-7.269 25.22,-11.101 5.74,3.062 11.49,8.421 11.49,17.98 0,11.852 -7.67,20.262 -26.78,20.262 -32.88,0 -70.34,-29.821 -70.34,-91.371 v -3.821 l -16.83,-4.597 c -7.24,-1.891 -11.84,-5.711 -11.84,-12.981 0,-1.152 0.38,-3.441 0.38,-3.441 h 28.29 V 97.1016 l -12.99,-4.5703 c -7.26,-2.6993 -11.86,-5.75 -11.86,-12.6407 0,-1.1406 0.38,-3.4218 0.38,-3.4218 h 91 c 1.14,1.1406 3.81,6.871 3.81,10.6914 0,3.0703 -1.52,4.2109 -5.34,4.9687 l -25.99,4.9727 V 240.09 h 46.62 z m 107.03,4.59 c -48.55,0 -94.42,-34.398 -94.42,-99 0,-64.23 39.38,-94.8279 87.15,-94.8279 46.65,0 92.92,32.4879 92.92,98.6489 0,66.492 -37.86,95.179 -85.65,95.179 m -4.57,-22.57 c 28.26,0 49.29,-23.699 49.29,-74.906 0,-51.243 -21.03,-73.4222 -49.29,-73.4222 -28.3,0 -48.95,22.9492 -48.95,74.1602 0,51.621 20.65,74.168 48.95,74.168 m 181.19,20.281 -51.99,-4.98 c -9.19,-0.77 -14.16,-5.36 -14.16,-11.848 0,-1.519 0.4,-3.832 0.4,-3.832 l 27.14,-4.187 V 97.1016 l -13.38,-4.5703 c -7.27,-2.6993 -11.86,-5.75 -11.86,-12.6407 0,-1.1406 0.4,-3.4218 0.4,-3.4218 h 92.49 c 0.77,1.1406 3.82,6.871 3.82,10.6914 0,3.0703 -1.52,4.2109 -5.34,4.9687 l -27.52,4.9727 V 212.172 c 8.02,11.078 18.73,19.5 39.75,19.5 13.01,0 22.55,-4.203 25.62,-5.742 3.05,3.84 6.87,11.082 6.87,19.5 0,11.859 -8.39,20.269 -26.37,20.269 -24.85,0 -39.01,-22.168 -47.02,-35.179 h -1.15 z m 384.18,-65 c 0,43.969 -22.17,67.289 -58.86,67.289 -34.41,0 -54.66,-19.5 -65,-30.957 -8.78,20.25 -25.99,30.957 -49.32,30.957 -33.63,0 -52.36,-18.347 -60.4,-27.136 h -1.12 l 2.27,24.847 -51.99,-4.98 c -9.17,-0.77 -14.14,-5.36 -14.14,-11.848 0,-1.519 0.38,-3.832 0.38,-3.832 l 27.14,-4.187 V 97.1016 l -13.38,-4.5703 c -7.27,-2.6993 -11.84,-5.75 -11.84,-12.6407 0,-1.1406 0.38,-3.4218 0.38,-3.4218 h 86.77 c 0.78,1.1406 3.82,6.871 3.82,10.6914 0,3.0703 -1.52,4.2109 -5.34,4.9687 l -21.8,4.9727 V 220.199 c 8.81,7.27 21.42,16.071 42.82,16.071 17.98,0 34.04,-9.188 34.04,-42.43 V 97.1016 l -12.64,-4.5703 c -7.26,-2.3008 -11.83,-5.75 -11.83,-12.6407 0,-1.1406 0.37,-3.4218 0.37,-3.4218 h 86.78 c 1.14,1.1406 3.82,6.871 3.82,10.6914 0,3.0703 -1.52,4.2109 -5.35,4.9687 l -22.17,4.9727 V 198.41 c 0,7.262 -0.78,13.762 -1.9,19.879 8.79,8.043 21.78,17.981 45.1,17.981 17.98,0 34.41,-9.188 34.41,-42.43 V 97.1016 l -12.61,-4.5703 c -7.27,-2.3008 -11.86,-5.75 -11.86,-12.6407 0,-1.1406 0.38,-3.4218 0.38,-3.4218 h 86.39 c 1.16,1.1406 3.83,6.871 3.83,10.6914 0,3.0703 -1.53,4.2109 -5.35,4.9687 l -21.8,4.9727 z m 180.82,1.149 c 0,43.191 -19.48,66.14 -61.53,66.14 -35.56,0 -66.9,-17.98 -66.9,-41.668 0,-11.859 7.24,-17.98 20.25,-17.98 3.05,0 8.79,0.39 8.79,0.39 1.93,12.989 4.97,26.379 8.42,33.649 3.04,1.14 10.71,3.812 19.5,3.812 23.7,0 32.86,-13.761 32.86,-48.543 v -17.207 h -9.94 c -42.79,0 -87.55,-15.3 -87.55,-56.211 0,-30.1793 20.66,-50.0699 49.72,-50.0699 31.71,0 45.87,20.2578 50.07,27.5195 h 0.78 c 3.44,-19.1015 14.5,-26.7695 32.1,-26.7695 24.85,0 34.79,14.9414 34.79,19.9102 0,3.4101 -2.67,8.7887 -4.59,11.4607 -1.15,-1.922 -5.72,-6.492 -14.54,-6.492 -6.49,0 -12.23,4.57 -12.23,19.871 z m -38.61,-40.137 v -43.59 c -4.97,-6.133 -16.8,-16.4414 -32.49,-16.4414 -15.67,0 -24.84,10.7114 -24.84,26.7694 0,20.25 17.58,31.352 48.55,32.871 z m 199.95,101.687 h -56.59 v 51.61 h -28.29 l -8.79,-51.61 -18.73,-4.597 c -7.26,-1.52 -11.86,-5.711 -11.86,-12.981 0,-1.152 0.4,-3.441 0.4,-3.441 h 28.67 V 121.57 c 0,-29.4411 13.75,-49.6989 48.54,-49.6989 34.79,0 48.17,17.9609 48.17,21.7812 0,3.8477 -1.52,9.5707 -3.44,12.6367 -3.05,-2.68 -15.29,-9.1874 -30.19,-9.1874 -19.13,0 -24.48,14.1604 -24.48,31.3594 V 240.09 h 52.37 z m 80.65,2.301 -51.99,-4.98 c -9.18,-0.77 -14.15,-5.36 -14.15,-11.848 0,-1.519 0.4,-3.832 0.4,-3.832 l 27.14,-4.187 V 97.1016 l -13.39,-4.5703 c -7.26,-2.6993 -11.86,-5.75 -11.86,-12.6407 0,-1.1406 0.4,-3.4218 0.4,-3.4218 h 87.53 c 0.77,1.1406 3.82,6.871 3.82,10.6914 0,3.0703 -1.52,4.2109 -5.35,4.9687 l -22.55,4.9727 z m 5.75,62.301 c 0,14.531 -11.49,24.469 -25.25,24.469 -14.13,0 -24.85,-9.938 -24.85,-24.469 0,-14.91 10.72,-24.469 24.85,-24.469 13.76,0 25.25,9.559 25.25,24.469 m 137.22,-60.012 c -48.55,0 -94.42,-34.398 -94.42,-99 0,-64.23 39.38,-94.8279 87.17,-94.8279 46.63,0 92.9,32.4879 92.9,98.6489 0,66.492 -37.86,95.179 -85.65,95.179 m -4.57,-22.57 c 28.29,0 49.31,-23.699 49.31,-74.906 0,-51.243 -21.02,-73.4222 -49.31,-73.4222 -28.3,0 -48.95,22.9492 -48.95,74.1602 0,51.621 20.65,74.168 48.95,74.168 m 300.85,-44.719 c 0,43.199 -20.65,67.289 -58.11,67.289 -35.18,0 -52.39,-17.98 -62.7,-29.058 h -1.15 l 2.3,26.769 -51.99,-4.98 c -9.17,-0.77 -14.14,-5.36 -14.14,-11.848 0,-1.519 0.38,-3.832 0.38,-3.832 l 27.14,-4.187 V 97.1016 l -13.38,-4.5703 c -7.27,-2.6993 -11.86,-5.75 -11.86,-12.6407 0,-1.1406 0.4,-3.4218 0.4,-3.4218 h 86.77 c 0.78,1.1406 3.82,6.871 3.82,10.6914 0,3.0703 -1.52,4.2109 -5.34,4.9687 l -21.8,4.9727 V 219.43 c 8.04,6.5 22.17,16.84 43.97,16.84 18.73,0 37.08,-9.938 37.08,-42.43 V 97.1016 l -12.63,-4.5703 c -7.24,-2.3008 -11.84,-5.75 -11.84,-12.6407 0,-1.1406 0.38,-3.4218 0.38,-3.4218 h 86.78 c 0.77,1.1406 3.81,6.871 3.81,10.6914 0,3.0703 -1.52,4.2109 -5.34,4.9687 l -22.55,4.9727 z m 139.51,10.34 c 0,0 2.7,-0.398 4.6,-0.398 13.76,0 16.43,8.789 16.43,22.168 0,7.64 -0.75,15.679 -1.52,21.031 -6.87,6.48 -22.55,14.148 -44.73,14.148 -36.7,0 -62.7,-19.867 -62.7,-49.719 0,-32.859 23.32,-47.757 46.65,-62.671 17.2,-10.707 35.56,-19.879 35.56,-36.329 0,-16.058 -11.86,-23.3277 -30.59,-23.3277 -11.09,0 -22.18,5 -26,7.6677 l -8.01,32.493 c 0,0 -3.07,0.367 -4.97,0.367 -11.49,0 -15.69,-6.121 -15.69,-21.399 0,-9.941 1.16,-19.8787 2.68,-29.4412 8.04,-4.9687 27.14,-11.4687 48.54,-11.4687 42.05,0 68.05,23.6992 68.05,55.0389 0,30.602 -24.45,45.5 -47.4,59.262 -18.35,10.707 -36.31,20.648 -36.31,37.48 0,16.047 12.99,21.411 25.6,21.411 11.48,0 21.03,-4.602 25.24,-7.653 z m 169.76,-3.449 H 3495.2 V 181.23 h 104.76 z m 277.91,58.109 -52,-4.98 c -9.16,-0.77 -14.13,-5.36 -14.13,-11.848 0,-1.519 0.37,-3.832 0.37,-3.832 l 27.15,-4.187 V 118.52 c -8.79,-9.938 -21.79,-18.348 -41.28,-18.348 -16.82,0 -35.18,8.008 -35.18,42.797 V 263.41 l -51.99,-4.98 c -9.17,-0.77 -14.14,-5.36 -14.14,-11.848 0,-1.519 0.38,-3.832 0.38,-3.832 l 27.14,-4.187 V 141.07 c 0,-45.1286 19.11,-69.1989 60.03,-69.1989 33.64,0 50.44,19.5 56.57,27.5195 h 0.77 V 74.1797 l 50.47,4.5703 c 9.16,0.7695 14.13,5.3594 14.13,12.2305 0,1.5508 -0.37,3.0703 -0.37,3.0703 l -27.92,3.8203 z m 230.13,-65 c 0,43.199 -20.62,67.289 -58.1,67.289 -35.17,0 -52.37,-17.98 -62.69,-29.058 h -1.14 l 2.29,26.769 -51.99,-4.98 c -9.19,-0.77 -14.16,-5.36 -14.16,-11.848 0,-1.519 0.38,-3.832 0.38,-3.832 l 27.14,-4.187 V 97.1016 l -13.36,-4.5703 c -7.26,-2.6993 -11.85,-5.75 -11.85,-12.6407 0,-1.1406 0.37,-3.4218 0.37,-3.4218 h 86.77 c 0.78,1.1406 3.85,6.871 3.85,10.6914 0,3.0703 -1.55,4.2109 -5.37,4.9687 l -21.78,4.9727 V 219.43 c 8.02,6.5 22.15,16.84 43.96,16.84 18.72,0 37.08,-9.938 37.08,-42.43 V 97.1016 l -12.62,-4.5703 c -7.26,-2.3008 -11.85,-5.75 -11.85,-12.6407 0,-1.1406 0.4,-3.4218 0.4,-3.4218 h 86.76 c 0.76,1.1406 3.83,6.871 3.83,10.6914 0,3.0703 -1.52,4.2109 -5.35,4.9687 L 4108,97.1016 Z M 4319.78,354 4267.8,349.031 c -9.17,-0.769 -14.14,-5.34 -14.14,-11.851 0,-1.528 0.38,-4.2 0.38,-4.2 l 27.14,-3.82 v -66.91 c -6.5,1.531 -16.06,3.449 -27.14,3.449 -48.93,0 -98.65,-32.109 -98.65,-103.23 0,-66.5276 35.19,-90.5979 72.65,-90.5979 29.82,0 45.87,15.2891 54.29,27.1484 h 1.14 V 74.1797 l 50.47,4.5703 c 9.17,0.7695 14.14,5.3594 14.14,12.2305 0,1.5508 -0.38,3.0703 -0.38,3.0703 l -27.92,3.8203 z m -38.6,-237.02 c -4.97,-5.718 -16.81,-16.058 -38.98,-16.058 -25.62,0 -47.02,19.879 -47.02,69.187 0,50.473 22.92,72.641 53.89,72.641 16.05,0 26.39,-6.109 32.11,-11.449 z m 409.8,206.051 c 9.94,2.309 13.01,6.899 13.01,13.008 0,1.91 -0.39,4.203 -0.39,4.203 h -79.89 c -1.92,-3.453 -4.22,-8.043 -4.22,-11.461 0,-2.301 1.55,-3.441 5.37,-4.222 l 22.93,-5.34 V 149.492 h -0.75 l -125.01,190.75 h -67.3 c -1.52,-3.453 -4.2,-8.043 -4.2,-11.461 0,-2.301 1.53,-3.441 5.34,-4.222 l 23.33,-5.34 V 98.25 l -16.05,-3.8281 c -9.94,-2.293 -13.02,-7.6406 -13.02,-13.75 0,-1.9219 0.4,-4.2031 0.4,-4.2031 h 81.44 c 1.52,3.8203 4.19,8.7929 4.19,12.2109 0,2.3008 -1.15,3.4492 -5.35,4.2226 L 4505.2,98.25 v 193.051 h 0.77 L 4647.04,76.4688 h 26.73 V 319.219 Z m 167.08,-123.472 c 0,43.191 -19.5,66.14 -61.55,66.14 -35.56,0 -66.9,-17.98 -66.9,-41.668 0,-11.859 7.27,-17.98 20.26,-17.98 3.04,0 8.79,0.39 8.79,0.39 1.92,12.989 4.97,26.379 8.41,33.649 3.05,1.14 10.71,3.812 19.51,3.812 23.69,0 32.86,-13.761 32.86,-48.543 v -17.207 h -9.94 c -42.81,0 -87.55,-15.3 -87.55,-56.211 0,-30.1793 20.65,-50.0699 49.71,-50.0699 31.72,0 45.87,20.2578 50.07,27.5195 h 0.77 c 3.45,-19.1015 14.54,-26.7695 32.12,-26.7695 24.85,0 34.79,14.9414 34.79,19.9102 0,3.4101 -2.68,8.7887 -4.6,11.4607 -1.15,-1.922 -5.72,-6.492 -14.53,-6.492 -6.5,0 -12.22,4.57 -12.22,19.871 z m -38.62,-40.137 v -43.59 c -4.97,-6.133 -16.81,-16.4414 -32.49,-16.4414 -15.69,0 -24.85,10.7114 -24.85,26.7694 0,20.25 17.58,31.352 48.55,32.871 z m 214.47,51.59 c 14.51,3.078 19.48,12.64 19.48,22.949 0,11.102 -10.69,31.738 -52.74,31.738 -51.61,0 -94.82,-34.797 -94.82,-99.398 0,-63.078 32.11,-94.4299 81.81,-94.4299 42.05,0 63.08,22.1797 63.08,31.7379 0,3.43 -2.67,9.543 -6.12,12.993 -6.12,-6.11 -19.88,-18.352 -43.57,-18.352 -35.94,0 -54.67,27.91 -54.67,76.082 0,50.07 22.18,68.418 47.78,68.418 25.24,0 34.03,-18.348 39.77,-31.738 M 5135.97,354 l -52.36,-4.969 c -9.19,-0.769 -14.16,-5.34 -14.16,-11.851 0,-1.528 0.37,-4.2 0.37,-4.2 l 27.15,-3.82 V 97.1016 l -13.36,-4.5703 c -7.27,-2.3008 -11.87,-5.75 -11.87,-12.6407 0,-1.1406 0.38,-3.4218 0.38,-3.4218 h 86.77 c 1.15,1.1406 3.85,6.871 3.85,10.6914 0,3.0703 -1.54,4.2109 -5.37,4.9687 l -21.4,4.9727 V 218.68 c 7.27,7.25 19.87,17.59 43.58,17.59 19.5,0 37.08,-9.938 37.08,-42.43 V 97.1016 l -12.61,-4.5703 c -7.27,-2.3008 -11.87,-5.75 -11.87,-12.6407 0,-1.1406 0.4,-3.4218 0.4,-3.4218 h 86.78 c 0.75,1.1406 3.82,6.871 3.82,10.6914 0,3.0703 -1.52,4.2109 -5.34,4.9687 l -22.18,4.9727 V 198.41 c 0,44.719 -21.8,67.289 -60.03,67.289 -32.86,0 -51.21,-18.347 -58.86,-27.539 h -0.77 z m 227.06,-90.59 -51.98,-4.98 c -9.17,-0.77 -14.14,-5.36 -14.14,-11.848 0,-1.519 0.38,-3.832 0.38,-3.832 l 27.14,-4.187 V 97.1016 l -13.38,-4.5703 c -7.25,-2.6993 -11.84,-5.75 -11.84,-12.6407 0,-1.1406 0.37,-3.4218 0.37,-3.4218 h 92.52 c 0.78,1.1406 3.82,6.871 3.82,10.6914 0,3.0703 -1.52,4.2109 -5.34,4.9687 l -27.55,4.9727 V 212.172 c 8.05,11.078 18.76,19.5 39.79,19.5 12.98,0 22.55,-4.203 25.59,-5.742 3.07,3.84 6.89,11.082 6.89,19.5 0,11.859 -8.41,20.269 -26.37,20.269 -24.86,0 -39,-22.168 -47.02,-35.179 h -1.14 z m 151.78,0 -51.99,-4.98 c -9.16,-0.77 -14.15,-5.36 -14.15,-11.848 0,-1.519 0.39,-3.832 0.39,-3.832 l 27.15,-4.187 V 97.1016 l -13.39,-4.5703 c -7.27,-2.6993 -11.86,-5.75 -11.86,-12.6407 0,-1.1406 0.4,-3.4218 0.4,-3.4218 h 87.52 c 0.78,1.1406 3.85,6.871 3.85,10.6914 0,3.0703 -1.54,4.2109 -5.37,4.9687 l -22.55,4.9727 z m 5.74,62.301 c 0,14.531 -11.48,24.469 -25.24,24.469 -14.13,0 -24.85,-9.938 -24.85,-24.469 0,-14.91 10.72,-24.469 24.85,-24.469 13.76,0 25.24,9.559 25.24,24.469 m 171.26,-114.699 c 14.53,3.078 19.5,12.64 19.5,22.949 0,11.102 -10.71,31.738 -52.76,31.738 -51.62,0 -94.82,-34.797 -94.82,-99.398 0,-63.078 32.11,-94.4299 81.83,-94.4299 42.05,0 63.08,22.1797 63.08,31.7379 0,3.43 -2.7,9.543 -6.12,12.993 -6.12,-6.11 -19.88,-18.352 -43.6,-18.352 -35.94,0 -54.66,27.91 -54.66,76.082 0,50.07 22.17,68.418 47.8,68.418 25.22,0 34.01,-18.348 39.75,-31.738 M 5793.86,354 5741.5,349.031 c -9.16,-0.769 -14.13,-5.34 -14.13,-11.851 0,-1.528 0.37,-4.2 0.37,-4.2 l 27.15,-3.82 V 97.1016 l -13.39,-4.5703 c -7.27,-2.3008 -11.86,-5.75 -11.86,-12.6407 0,-1.1406 0.4,-3.4218 0.4,-3.4218 h 86.77 c 1.15,1.1406 3.83,6.871 3.83,10.6914 0,3.0703 -1.52,4.2109 -5.35,4.9687 l -21.43,4.9727 V 218.68 c 7.28,7.25 19.88,17.59 43.61,17.59 19.48,0 37.08,-9.938 37.08,-42.43 V 97.1016 l -12.64,-4.5703 c -7.24,-2.3008 -11.84,-5.75 -11.84,-12.6407 0,-1.1406 0.38,-3.4218 0.38,-3.4218 h 86.78 c 0.77,1.1406 3.82,6.871 3.82,10.6914 0,3.0703 -1.52,4.2109 -5.34,4.9687 l -22.18,4.9727 V 198.41 c 0,44.719 -21.78,67.289 -60.01,67.289 -32.88,0 -51.24,-18.347 -58.88,-27.539 h -0.78 z m 280.24,-92.891 h -56.6 v 51.61 h -28.29 l -8.79,-51.61 -18.73,-4.597 c -7.26,-1.52 -11.85,-5.711 -11.85,-12.981 0,-1.152 0.4,-3.441 0.4,-3.441 h 28.66 V 121.57 c 0,-29.4411 13.76,-49.6989 48.55,-49.6989 34.78,0 48.17,17.9609 48.17,21.7812 0,3.8477 -1.52,9.5707 -3.45,12.6367 -3.04,-2.68 -15.28,-9.1874 -30.19,-9.1874 -19.12,0 -24.48,14.1604 -24.48,31.3594 V 240.09 h 52.38 z m 164.38,-92.886 c 2.67,9.558 4.57,22.918 4.57,32.859 0,38.227 -21.78,64.617 -64.98,64.617 -43.57,0 -83.72,-34.027 -83.72,-100.558 0,-66.4887 35.16,-93.2699 82.2,-93.2699 42.43,0 67.65,21.7812 67.65,31.3519 0,3.437 -1.9,9.929 -5.72,13.007 -9.56,-8.05 -23.32,-17.5777 -47.79,-17.5777 -32.89,0 -55.44,22.1487 -55.81,69.5707 z m -103.23,20.238 c 2.67,37.469 16.05,55.441 38.6,55.441 22.18,0 29.82,-17.972 29.82,-39 0,-6.492 -1.13,-12.992 -1.9,-16.441 z m 319.98,9.949 c 0,43.199 -20.65,67.289 -58.11,67.289 -35.18,0 -52.39,-17.98 -62.7,-29.058 h -1.14 l 2.29,26.769 -51.99,-4.98 c -9.17,-0.77 -14.13,-5.36 -14.13,-11.848 0,-1.519 0.37,-3.832 0.37,-3.832 l 27.15,-4.187 V 97.1016 l -13.39,-4.5703 c -7.27,-2.6993 -11.87,-5.75 -11.87,-12.6407 0,-1.1406 0.4,-3.4218 0.4,-3.4218 h 86.78 c 0.75,1.1406 3.82,6.871 3.82,10.6914 0,3.0703 -1.52,4.2109 -5.34,4.9687 l -21.8,4.9727 V 219.43 c 8.04,6.5 22.17,16.84 43.98,16.84 18.73,0 37.08,-9.938 37.08,-42.43 V 97.1016 l -12.64,-4.5703 c -7.24,-2.3008 -11.84,-5.75 -11.84,-12.6407 0,-1.1406 0.37,-3.4218 0.37,-3.4218 h 86.78 c 0.77,1.1406 3.83,6.871 3.83,10.6914 0,3.0703 -1.53,4.2109 -5.35,4.9687 l -22.55,4.9727 z m 158.64,6.891 H 6509.12 V 181.23 h 104.75 z m 153.67,137.988 -29.06,-3.418 -92.49,-242.371 -11.86,-2.6992 c -9.95,-2.2695 -12.99,-8.0195 -12.99,-14.1289 0,-1.9219 0.38,-4.2031 0.38,-4.2031 h 84.1 c 0.37,1.5312 4.2,8.3906 4.2,11.8398 0,2.293 -1.15,3.8203 -5.35,4.5937 l -29.44,4.9688 24.1,68.0509 h 90.97 l 23.32,-67.672 -13.76,-3.8281 c -9.94,-2.6602 -13.01,-7.6406 -13.01,-13.75 0,-1.9219 0.4,-4.2031 0.4,-4.2031 h 89.45 c 1.92,3.8203 4.2,8.7929 4.2,12.2109 0,2.3008 -1.14,3.082 -5.35,4.2226 L 6858.14,97.5 Z m -21.79,-49.32 36.71,-105.879 h -75.32 l 37.85,105.879 z m 206.06,-30.559 -51.99,-4.98 c -9.19,-0.77 -14.16,-5.36 -14.16,-11.848 0,-1.519 0.4,-3.832 0.4,-3.832 l 27.15,-4.187 V 20.6289 l -13.39,-4.5664 c -7.27,-2.293 -11.86,-5.7422 -11.86,-12.61328 0,-1.14844 0.39,-3.4375012 0.39,-3.4375012 h 87.16 c 1.14,1.1484412 3.82,6.8593712 3.82,10.6874812 0,3.0703 -1.52,4.2227 -5.34,4.9727 l -22.18,4.957 v 56.2109 c 7.27,-1.9179 16.06,-3.4375 27.14,-3.4375 55.82,0 98.24,31.7267 98.24,104.3787 0,58.11 -30.58,87.918 -70.72,87.918 -30.96,0 -47.02,-16.047 -55.81,-27.136 h -1.14 z m 0,-41.68 c 7.64,6.891 19.1,14.911 37.46,14.911 26.77,0 47.79,-20.262 47.79,-64.231 0,-53.89 -20.65,-76.4686 -53.91,-76.4686 -14.13,0 -24.47,4.9806 -31.34,9.9496 z m 214.08,41.68 -51.99,-4.98 c -9.17,-0.77 -14.16,-5.36 -14.16,-11.848 0,-1.519 0.4,-3.832 0.4,-3.832 l 27.14,-4.187 V 20.6289 l -13.38,-4.5664 c -7.26,-2.293 -11.86,-5.7422 -11.86,-12.61328 0,-1.14844 0.4,-3.4375012 0.4,-3.4375012 h 87.14 c 1.16,1.1484412 3.83,6.8593712 3.83,10.6874812 0,3.0703 -1.52,4.2227 -5.35,4.9727 l -22.17,4.957 v 56.2109 c 7.27,-1.9179 16.06,-3.4375 27.14,-3.4375 55.81,0 98.24,31.7267 98.24,104.3787 0,58.11 -30.56,87.918 -70.72,87.918 -30.97,0 -47.02,-16.047 -55.81,-27.136 h -1.15 z m 0,-41.68 c 7.64,6.891 19.1,14.911 37.45,14.911 26.77,0 47.8,-20.262 47.8,-64.231 0,-53.89 -20.65,-76.4686 -53.91,-76.4686 -14.14,0 -24.45,4.9806 -31.34,9.9496 V 221.73" /></g></g></svg>