<svg width="576" height="460" xmlns="http://www.w3.org/2000/svg">
 <!-- Created with Method Draw - http://github.com/duopixel/Method-Draw/ -->

 <g>
  <title>background</title>
  <rect x="-1" y="-1" width="578" height="462" id="canvas_background" fill="none"/>
  <g id="canvasGrid" display="none">
   <rect id="svg_1" width="100%" height="100%" x="0" y="0" stroke-width="0" fill="url(#gridpattern)"/>
  </g>
 </g>
 <g>
  <title>Layer 1</title>
  <rect id="svg_2" height="444" width="554" y="8.95" x="12.5" stroke-width="10" stroke="#000000" fill="none"/>
  <rect fill="#000000" stroke="null" stroke-width="10" stroke-opacity="null" fill-opacity="null" x="45.5" y="31.95" width="31" height="31" id="svg_3"/>
  <rect fill="#000000" stroke="null" stroke-width="10" stroke-opacity="null" fill-opacity="null" x="85.5" y="31.95" width="31" height="31" id="svg_4"/>
  <rect fill="#000000" stroke="null" stroke-width="10" stroke-opacity="null" fill-opacity="null" x="125.5" y="31.95" width="31" height="31" id="svg_5"/>
  <rect fill="#000000" stroke="null" stroke-width="10" stroke-opacity="null" fill-opacity="null" x="165.5" y="31.95" width="31" height="31" id="svg_7"/>
  <rect fill="#000000" stroke="null" stroke-width="10" stroke-opacity="null" fill-opacity="null" x="205.5" y="31.95" width="31" height="31" id="svg_8"/>
  <rect fill="#000000" stroke="null" stroke-width="10" stroke-opacity="null" fill-opacity="null" x="245.5" y="31.95" width="31" height="31" id="svg_9"/>
  <rect fill="#000000" stroke="null" stroke-width="10" stroke-opacity="null" fill-opacity="null" x="285.5" y="31.95" width="31" height="31" id="svg_10"/>
  <rect fill="#000000" stroke="null" stroke-width="10" stroke-opacity="null" fill-opacity="null" x="325.5" y="31.95" width="31" height="31" id="svg_11"/>
  <rect fill="#000000" stroke="null" stroke-width="10" stroke-opacity="null" fill-opacity="null" x="365.5" y="31.95" width="31" height="31" id="svg_20"/>
  <rect fill="#000000" stroke="null" stroke-width="10" stroke-opacity="null" fill-opacity="null" x="405.5" y="31.95" width="31" height="31" id="svg_21"/>
  <rect fill="#000000" stroke="null" stroke-width="10" stroke-opacity="null" fill-opacity="null" x="445.5" y="31.95" width="31" height="31" id="svg_22"/>
  <rect fill="#000000" stroke="null" stroke-width="10" stroke-opacity="null" fill-opacity="null" x="485.5" y="31.95" width="31" height="31" id="svg_23"/>
  <rect fill="#000000" stroke="null" stroke-width="10" stroke-opacity="null" fill-opacity="null" x="45.5" y="71.95" width="31" height="31" id="svg_24"/>
  <rect fill="#000000" stroke="null" stroke-width="10" stroke-opacity="null" fill-opacity="null" x="85.5" y="71.95" width="31" height="31" id="svg_25"/>
  <rect fill="#000000" stroke="null" stroke-width="10" stroke-opacity="null" fill-opacity="null" x="125.5" y="71.95" width="31" height="31" id="svg_26"/>
  <rect fill="#000000" stroke="null" stroke-width="10" stroke-opacity="null" fill-opacity="null" x="165.5" y="71.95" width="31" height="31" id="svg_27"/>
  <rect fill="#000000" stroke="null" stroke-width="10" stroke-opacity="null" fill-opacity="null" x="205.5" y="71.95" width="31" height="31" id="svg_28"/>
  <rect fill="#000000" stroke="null" stroke-width="10" stroke-opacity="null" fill-opacity="null" x="245.5" y="71.95" width="31" height="31" id="svg_29"/>
  <rect fill="#000000" stroke="null" stroke-width="10" stroke-opacity="null" fill-opacity="null" x="285.5" y="71.95" width="31" height="31" id="svg_30"/>
  <rect fill="#000000" stroke="null" stroke-width="10" stroke-opacity="null" fill-opacity="null" x="325.5" y="71.95" width="31" height="31" id="svg_31"/>
  <rect fill="#000000" stroke="null" stroke-width="10" stroke-opacity="null" fill-opacity="null" x="365.5" y="71.95" width="31" height="31" id="svg_32"/>
  <rect fill="#000000" stroke="null" stroke-width="10" stroke-opacity="null" fill-opacity="null" x="405.5" y="71.95" width="31" height="31" id="svg_33"/>
  <rect fill="#000000" stroke="null" stroke-width="10" stroke-opacity="null" fill-opacity="null" x="445.5" y="71.95" width="31" height="31" id="svg_34"/>
  <rect fill="#000000" stroke="null" stroke-width="10" stroke-opacity="null" fill-opacity="null" x="485.5" y="71.95" width="31" height="31" id="svg_35"/>
  <rect fill="#000000" stroke="null" stroke-width="10" stroke-opacity="null" fill-opacity="null" x="45.5" y="111.95" width="31" height="31" id="svg_36"/>
  <rect fill="#000000" stroke="null" stroke-width="10" stroke-opacity="null" fill-opacity="null" x="85.5" y="111.95" width="31" height="31" id="svg_37"/>
  <rect fill="#000000" stroke="null" stroke-width="10" stroke-opacity="null" fill-opacity="null" x="125.5" y="111.95" width="31" height="31" id="svg_38"/>
  <rect fill="#000000" stroke="null" stroke-width="10" stroke-opacity="null" fill-opacity="null" x="165.5" y="111.95" width="31" height="31" id="svg_39"/>
  <rect fill="#000000" stroke="null" stroke-width="10" stroke-opacity="null" fill-opacity="null" x="205.5" y="111.95" width="31" height="31" id="svg_40"/>
  <rect fill="#000000" stroke="null" stroke-width="10" stroke-opacity="null" fill-opacity="null" x="245.5" y="111.95" width="31" height="31" id="svg_41"/>
  <rect fill="#000000" stroke="null" stroke-width="10" stroke-opacity="null" fill-opacity="null" x="285.5" y="111.95" width="31" height="31" id="svg_42"/>
  <rect fill="#000000" stroke="null" stroke-width="10" stroke-opacity="null" fill-opacity="null" x="325.5" y="111.95" width="31" height="31" id="svg_43"/>
  <rect fill="#000000" stroke="null" stroke-width="10" stroke-opacity="null" fill-opacity="null" x="365.5" y="111.95" width="31" height="31" id="svg_44"/>
  <rect fill="#000000" stroke="null" stroke-width="10" stroke-opacity="null" fill-opacity="null" x="405.5" y="111.95" width="31" height="31" id="svg_45"/>
  <rect fill="#000000" stroke="null" stroke-width="10" stroke-opacity="null" fill-opacity="null" x="445.5" y="111.95" width="31" height="31" id="svg_46"/>
  <rect fill="#000000" stroke="null" stroke-width="10" stroke-opacity="null" fill-opacity="null" x="485.5" y="111.95" width="31" height="31" id="svg_47"/>
  <rect fill="#000000" stroke="null" stroke-width="10" stroke-opacity="null" fill-opacity="null" x="45.5" y="151.95" width="31" height="31" id="svg_53"/>
  <rect fill="#000000" stroke="null" stroke-width="10" stroke-opacity="null" fill-opacity="null" x="85.5" y="151.95" width="31" height="31" id="svg_54"/>
  <rect fill="#000000" stroke="null" stroke-width="10" stroke-opacity="null" fill-opacity="null" x="125.5" y="151.95" width="31" height="31" id="svg_55"/>
  <rect fill="#000000" stroke="null" stroke-width="10" stroke-opacity="null" fill-opacity="null" x="165.5" y="151.95" width="31" height="31" id="svg_56"/>
  <rect fill="#000000" stroke="null" stroke-width="10" stroke-opacity="null" fill-opacity="null" x="205.5" y="151.95" width="31" height="31" id="svg_57"/>
  <rect fill="#000000" stroke="null" stroke-width="10" stroke-opacity="null" fill-opacity="null" x="245.5" y="151.95" width="31" height="31" id="svg_58"/>
  <rect fill="#000000" stroke="null" stroke-width="10" stroke-opacity="null" fill-opacity="null" x="285.5" y="151.95" width="31" height="31" id="svg_59"/>
  <rect fill="#000000" stroke="null" stroke-width="10" stroke-opacity="null" fill-opacity="null" x="325.5" y="151.95" width="31" height="31" id="svg_60"/>
  <rect fill="#000000" stroke="null" stroke-width="10" stroke-opacity="null" fill-opacity="null" x="365.5" y="151.95" width="31" height="31" id="svg_61"/>
  <rect fill="#000000" stroke="null" stroke-width="10" stroke-opacity="null" fill-opacity="null" x="405.5" y="151.95" width="31" height="31" id="svg_62"/>
  <rect fill="#000000" stroke="null" stroke-width="10" stroke-opacity="null" fill-opacity="null" x="445.5" y="151.95" width="31" height="31" id="svg_63"/>
  <rect fill="#000000" stroke="null" stroke-width="10" stroke-opacity="null" fill-opacity="null" x="485.5" y="151.95" width="31" height="31" id="svg_64"/>
  <rect fill="#000000" stroke="null" stroke-width="10" stroke-opacity="null" fill-opacity="null" x="45.5" y="191.95" width="31" height="31" id="svg_65"/>
  <rect fill="#000000" stroke="null" stroke-width="10" stroke-opacity="null" fill-opacity="null" x="85.5" y="191.95" width="31" height="31" id="svg_66"/>
  <rect fill="#000000" stroke="null" stroke-width="10" stroke-opacity="null" fill-opacity="null" x="125.5" y="191.95" width="31" height="31" id="svg_67"/>
  <rect fill="#000000" stroke="null" stroke-width="10" stroke-opacity="null" fill-opacity="null" x="165.5" y="191.95" width="31" height="31" id="svg_68"/>
  <rect fill="#000000" stroke="null" stroke-width="10" stroke-opacity="null" fill-opacity="null" x="205.5" y="191.95" width="31" height="31" id="svg_69"/>
  <rect fill="#000000" stroke="null" stroke-width="10" stroke-opacity="null" fill-opacity="null" x="245.5" y="191.95" width="31" height="31" id="svg_70"/>
  <rect fill="#000000" stroke="null" stroke-width="10" stroke-opacity="null" fill-opacity="null" x="285.5" y="191.95" width="31" height="31" id="svg_71"/>
  <rect fill="#000000" stroke="null" stroke-width="10" stroke-opacity="null" fill-opacity="null" x="325.5" y="191.95" width="31" height="31" id="svg_72"/>
  <rect fill="#000000" stroke="null" stroke-width="10" stroke-opacity="null" fill-opacity="null" x="365.5" y="191.95" width="31" height="31" id="svg_73"/>
  <rect fill="#000000" stroke="null" stroke-width="10" stroke-opacity="null" fill-opacity="null" x="405.5" y="191.95" width="31" height="31" id="svg_74"/>
  <rect fill="#000000" stroke="null" stroke-width="10" stroke-opacity="null" fill-opacity="null" x="445.5" y="191.95" width="31" height="31" id="svg_75"/>
  <rect fill="#000000" stroke="null" stroke-width="10" stroke-opacity="null" fill-opacity="null" x="485.5" y="191.95" width="31" height="31" id="svg_76"/>
  <rect fill="#000000" stroke="null" stroke-width="10" stroke-opacity="null" fill-opacity="null" x="45.5" y="231.95" width="31" height="31" id="svg_77"/>
  <rect fill="#000000" stroke="null" stroke-width="10" stroke-opacity="null" fill-opacity="null" x="85.5" y="231.95" width="31" height="31" id="svg_78"/>
  <rect fill="#000000" stroke="null" stroke-width="10" stroke-opacity="null" fill-opacity="null" x="125.5" y="231.95" width="31" height="31" id="svg_79"/>
  <rect fill="#000000" stroke="null" stroke-width="10" stroke-opacity="null" fill-opacity="null" x="165.5" y="231.95" width="31" height="31" id="svg_80"/>
  <rect fill="#000000" stroke="null" stroke-width="10" stroke-opacity="null" fill-opacity="null" x="205.5" y="231.95" width="31" height="31" id="svg_81"/>
  <rect fill="#000000" stroke="null" stroke-width="10" stroke-opacity="null" fill-opacity="null" x="245.5" y="231.95" width="31" height="31" id="svg_82"/>
  <rect fill="#000000" stroke="null" stroke-width="10" stroke-opacity="null" fill-opacity="null" x="285.5" y="231.95" width="31" height="31" id="svg_83"/>
  <rect fill="#000000" stroke="null" stroke-width="10" stroke-opacity="null" fill-opacity="null" x="325.5" y="231.95" width="31" height="31" id="svg_84"/>
  <rect fill="#000000" stroke="null" stroke-width="10" stroke-opacity="null" fill-opacity="null" x="365.5" y="231.95" width="31" height="31" id="svg_85"/>
  <rect fill="#000000" stroke="null" stroke-width="10" stroke-opacity="null" fill-opacity="null" x="405.5" y="231.95" width="31" height="31" id="svg_86"/>
  <rect fill="#000000" stroke="null" stroke-width="10" stroke-opacity="null" fill-opacity="null" x="445.5" y="231.95" width="31" height="31" id="svg_87"/>
  <rect fill="#000000" stroke="null" stroke-width="10" stroke-opacity="null" fill-opacity="null" x="485.5" y="231.95" width="31" height="31" id="svg_88"/>
  <rect fill="#000000" stroke="null" stroke-width="10" stroke-opacity="null" fill-opacity="null" x="45.5" y="271.95" width="31" height="31" id="svg_89"/>
  <rect fill="#000000" stroke="null" stroke-width="10" stroke-opacity="null" fill-opacity="null" x="85.5" y="271.95" width="31" height="31" id="svg_90"/>
  <rect fill="#000000" stroke="null" stroke-width="10" stroke-opacity="null" fill-opacity="null" x="125.5" y="271.95" width="31" height="31" id="svg_91"/>
  <rect fill="#000000" stroke="null" stroke-width="10" stroke-opacity="null" fill-opacity="null" x="165.5" y="271.95" width="31" height="31" id="svg_92"/>
  <rect fill="#000000" stroke="null" stroke-width="10" stroke-opacity="null" fill-opacity="null" x="205.5" y="271.95" width="31" height="31" id="svg_93"/>
  <rect fill="#000000" stroke="null" stroke-width="10" stroke-opacity="null" fill-opacity="null" x="245.5" y="271.95" width="31" height="31" id="svg_94"/>
  <rect fill="#000000" stroke="null" stroke-width="10" stroke-opacity="null" fill-opacity="null" x="285.5" y="271.95" width="31" height="31" id="svg_95"/>
  <rect fill="#000000" stroke="null" stroke-width="10" stroke-opacity="null" fill-opacity="null" x="325.5" y="271.95" width="31" height="31" id="svg_96"/>
  <rect fill="#000000" stroke="null" stroke-width="10" stroke-opacity="null" fill-opacity="null" x="365.5" y="271.95" width="31" height="31" id="svg_97"/>
  <rect fill="#000000" stroke="null" stroke-width="10" stroke-opacity="null" fill-opacity="null" x="405.5" y="271.95" width="31" height="31" id="svg_98"/>
  <rect fill="#000000" stroke="null" stroke-width="10" stroke-opacity="null" fill-opacity="null" x="445.5" y="271.95" width="31" height="31" id="svg_99"/>
  <rect fill="#000000" stroke="null" stroke-width="10" stroke-opacity="null" fill-opacity="null" x="485.5" y="271.95" width="31" height="31" id="svg_100"/>
  <rect fill="#000000" stroke="null" stroke-width="10" stroke-opacity="null" fill-opacity="null" x="45.5" y="311.95" width="31" height="31" id="svg_101"/>
  <rect fill="#000000" stroke="null" stroke-width="10" stroke-opacity="null" fill-opacity="null" x="85.5" y="311.95" width="31" height="31" id="svg_102"/>
  <rect fill="#000000" stroke="null" stroke-width="10" stroke-opacity="null" fill-opacity="null" x="125.5" y="311.95" width="31" height="31" id="svg_103"/>
  <rect fill="#000000" stroke="null" stroke-width="10" stroke-opacity="null" fill-opacity="null" x="165.5" y="311.95" width="31" height="31" id="svg_104"/>
  <rect fill="#000000" stroke="null" stroke-width="10" stroke-opacity="null" fill-opacity="null" x="205.5" y="311.95" width="31" height="31" id="svg_105"/>
  <rect fill="#000000" stroke="null" stroke-width="10" stroke-opacity="null" fill-opacity="null" x="245.5" y="311.95" width="31" height="31" id="svg_106"/>
  <rect fill="#000000" stroke="null" stroke-width="10" stroke-opacity="null" fill-opacity="null" x="285.5" y="311.95" width="31" height="31" id="svg_107"/>
  <rect fill="#000000" stroke="null" stroke-width="10" stroke-opacity="null" fill-opacity="null" x="325.5" y="311.95" width="31" height="31" id="svg_108"/>
  <rect fill="#000000" stroke="null" stroke-width="10" stroke-opacity="null" fill-opacity="null" x="365.5" y="311.95" width="31" height="31" id="svg_109"/>
  <rect fill="#000000" stroke="null" stroke-width="10" stroke-opacity="null" fill-opacity="null" x="405.5" y="311.95" width="31" height="31" id="svg_110"/>
  <rect fill="#000000" stroke="null" stroke-width="10" stroke-opacity="null" fill-opacity="null" x="445.5" y="311.95" width="31" height="31" id="svg_111"/>
  <rect fill="#000000" stroke="null" stroke-width="10" stroke-opacity="null" fill-opacity="null" x="485.5" y="311.95" width="31" height="31" id="svg_112"/>
  <rect fill="#000000" stroke="null" stroke-width="10" stroke-opacity="null" fill-opacity="null" x="45.5" y="351.95" width="31" height="31" id="svg_113"/>
  <rect fill="#000000" stroke="null" stroke-width="10" stroke-opacity="null" fill-opacity="null" x="85.5" y="351.95" width="31" height="31" id="svg_114"/>
  <rect fill="#000000" stroke="null" stroke-width="10" stroke-opacity="null" fill-opacity="null" x="125.5" y="351.95" width="31" height="31" id="svg_115"/>
  <rect fill="#000000" stroke="null" stroke-width="10" stroke-opacity="null" fill-opacity="null" x="165.5" y="351.95" width="31" height="31" id="svg_116"/>
  <rect fill="#000000" stroke="null" stroke-width="10" stroke-opacity="null" fill-opacity="null" x="205.5" y="351.95" width="31" height="31" id="svg_117"/>
  <rect fill="#000000" stroke="null" stroke-width="10" stroke-opacity="null" fill-opacity="null" x="245.5" y="351.95" width="31" height="31" id="svg_118"/>
  <rect fill="#000000" stroke="null" stroke-width="10" stroke-opacity="null" fill-opacity="null" x="285.5" y="351.95" width="31" height="31" id="svg_119"/>
  <rect fill="#000000" stroke="null" stroke-width="10" stroke-opacity="null" fill-opacity="null" x="325.5" y="351.95" width="31" height="31" id="svg_120"/>
  <rect fill="#000000" stroke="null" stroke-width="10" stroke-opacity="null" fill-opacity="null" x="365.5" y="351.95" width="31" height="31" id="svg_121"/>
  <rect fill="#000000" stroke="null" stroke-width="10" stroke-opacity="null" fill-opacity="null" x="405.5" y="351.95" width="31" height="31" id="svg_122"/>
  <rect fill="#000000" stroke="null" stroke-width="10" stroke-opacity="null" fill-opacity="null" x="445.5" y="351.95" width="31" height="31" id="svg_123"/>
  <rect fill="#000000" stroke="null" stroke-width="10" stroke-opacity="null" fill-opacity="null" x="485.5" y="351.95" width="31" height="31" id="svg_124"/>
  <rect fill="#000000" stroke="null" stroke-width="10" stroke-opacity="null" fill-opacity="null" x="45.5" y="311.95" width="31" height="31" id="svg_125"/>
  <rect fill="#000000" stroke="null" stroke-width="10" stroke-opacity="null" fill-opacity="null" x="85.5" y="311.95" width="31" height="31" id="svg_126"/>
  <rect fill="#000000" stroke="null" stroke-width="10" stroke-opacity="null" fill-opacity="null" x="125.5" y="311.95" width="31" height="31" id="svg_127"/>
  <rect fill="#000000" stroke="null" stroke-width="10" stroke-opacity="null" fill-opacity="null" x="165.5" y="311.95" width="31" height="31" id="svg_128"/>
  <rect fill="#000000" stroke="null" stroke-width="10" stroke-opacity="null" fill-opacity="null" x="205.5" y="311.95" width="31" height="31" id="svg_129"/>
  <rect fill="#000000" stroke="null" stroke-width="10" stroke-opacity="null" fill-opacity="null" x="245.5" y="311.95" width="31" height="31" id="svg_130"/>
  <rect fill="#000000" stroke="null" stroke-width="10" stroke-opacity="null" fill-opacity="null" x="285.5" y="311.95" width="31" height="31" id="svg_131"/>
  <rect fill="#000000" stroke="null" stroke-width="10" stroke-opacity="null" fill-opacity="null" x="325.5" y="311.95" width="31" height="31" id="svg_132"/>
  <rect fill="#000000" stroke="null" stroke-width="10" stroke-opacity="null" fill-opacity="null" x="365.5" y="311.95" width="31" height="31" id="svg_133"/>
  <rect fill="#000000" stroke="null" stroke-width="10" stroke-opacity="null" fill-opacity="null" x="405.5" y="311.95" width="31" height="31" id="svg_134"/>
  <rect fill="#000000" stroke="null" stroke-width="10" stroke-opacity="null" fill-opacity="null" x="445.5" y="311.95" width="31" height="31" id="svg_135"/>
  <rect fill="#000000" stroke="null" stroke-width="10" stroke-opacity="null" fill-opacity="null" x="485.5" y="311.95" width="31" height="31" id="svg_136"/>
  <rect fill="#000000" stroke="null" stroke-width="10" stroke-opacity="null" fill-opacity="null" x="45.5" y="351.95" width="31" height="31" id="svg_137"/>
  <rect fill="#000000" stroke="null" stroke-width="10" stroke-opacity="null" fill-opacity="null" x="85.5" y="351.95" width="31" height="31" id="svg_138"/>
  <rect fill="#000000" stroke="null" stroke-width="10" stroke-opacity="null" fill-opacity="null" x="125.5" y="351.95" width="31" height="31" id="svg_139"/>
  <rect fill="#000000" stroke="null" stroke-width="10" stroke-opacity="null" fill-opacity="null" x="165.5" y="351.95" width="31" height="31" id="svg_140"/>
  <rect fill="#000000" stroke="null" stroke-width="10" stroke-opacity="null" fill-opacity="null" x="205.5" y="351.95" width="31" height="31" id="svg_141"/>
  <rect fill="#000000" stroke="null" stroke-width="10" stroke-opacity="null" fill-opacity="null" x="245.5" y="351.95" width="31" height="31" id="svg_142"/>
  <rect fill="#000000" stroke="null" stroke-width="10" stroke-opacity="null" fill-opacity="null" x="285.5" y="351.95" width="31" height="31" id="svg_143"/>
  <rect fill="#000000" stroke="null" stroke-width="10" stroke-opacity="null" fill-opacity="null" x="325.5" y="351.95" width="31" height="31" id="svg_144"/>
  <rect fill="#000000" stroke="null" stroke-width="10" stroke-opacity="null" fill-opacity="null" x="365.5" y="351.95" width="31" height="31" id="svg_145"/>
  <rect fill="#000000" stroke="null" stroke-width="10" stroke-opacity="null" fill-opacity="null" x="405.5" y="351.95" width="31" height="31" id="svg_146"/>
  <rect fill="#000000" stroke="null" stroke-width="10" stroke-opacity="null" fill-opacity="null" x="445.5" y="351.95" width="31" height="31" id="svg_147"/>
  <rect fill="#000000" stroke="null" stroke-width="10" stroke-opacity="null" fill-opacity="null" x="485.5" y="351.95" width="31" height="31" id="svg_148"/>
  <rect fill="#000000" stroke="null" stroke-width="10" stroke-opacity="null" fill-opacity="null" x="45.5" y="391.95" width="31" height="31" id="svg_149"/>
  <rect fill="#000000" stroke="null" stroke-width="10" stroke-opacity="null" fill-opacity="null" x="85.5" y="391.95" width="31" height="31" id="svg_150"/>
  <rect fill="#000000" stroke="null" stroke-width="10" stroke-opacity="null" fill-opacity="null" x="125.5" y="391.95" width="31" height="31" id="svg_151"/>
  <rect fill="#000000" stroke="null" stroke-width="10" stroke-opacity="null" fill-opacity="null" x="165.5" y="391.95" width="31" height="31" id="svg_152"/>
  <rect fill="#000000" stroke="null" stroke-width="10" stroke-opacity="null" fill-opacity="null" x="205.5" y="391.95" width="31" height="31" id="svg_153"/>
  <rect fill="#000000" stroke="null" stroke-width="10" stroke-opacity="null" fill-opacity="null" x="245.5" y="391.95" width="31" height="31" id="svg_154"/>
  <rect fill="#000000" stroke="null" stroke-width="10" stroke-opacity="null" fill-opacity="null" x="285.5" y="391.95" width="31" height="31" id="svg_155"/>
  <rect fill="#000000" stroke="null" stroke-width="10" stroke-opacity="null" fill-opacity="null" x="325.5" y="391.95" width="31" height="31" id="svg_156"/>
  <rect fill="#000000" stroke="null" stroke-width="10" stroke-opacity="null" fill-opacity="null" x="365.5" y="391.95" width="31" height="31" id="svg_157"/>
  <rect fill="#000000" stroke="null" stroke-width="10" stroke-opacity="null" fill-opacity="null" x="405.5" y="391.95" width="31" height="31" id="svg_158"/>
  <rect fill="#000000" stroke="null" stroke-width="10" stroke-opacity="null" fill-opacity="null" x="445.5" y="391.95" width="31" height="31" id="svg_159"/>
  <rect fill="#000000" stroke="null" stroke-width="10" stroke-opacity="null" fill-opacity="null" x="485.5" y="391.95" width="31" height="31" id="svg_160"/>
 </g>
</svg>