<svg width="576" height="460" xmlns="http://www.w3.org/2000/svg">
 <!-- Created with Method Draw - http://github.com/duopixel/Method-Draw/ -->

 <g>
  <title>background</title>
  <rect fill="none" id="canvas_background" height="462" width="578" y="-1" x="-1"/>
  <g display="none" id="canvasGrid">
   <rect fill="url(#gridpattern)" stroke-width="0" y="0" x="0" height="100%" width="100%" id="svg_1"/>
  </g>
 </g>
 <g>
  <title>Layer 1</title>
  <rect fill="none" stroke="#000000" stroke-width="10" x="12.5" y="8.95" width="554" height="444" id="svg_2"/>
  <rect fill="#000000" stroke="null" stroke-width="10" stroke-opacity="null" fill-opacity="null" x="55.5" y="304.95" width="81" height="81" id="svg_12"/>
  <ellipse fill="#000000" stroke="null" stroke-width="10" stroke-opacity="null" fill-opacity="null" cx="125.5" cy="304.95" id="svg_13" rx="29" ry="29"/>
  <rect fill="#000000" stroke="null" stroke-width="10" stroke-opacity="null" fill-opacity="null" x="181.5" y="305.95" width="81" height="81" id="svg_14"/>
  <ellipse fill="#000000" stroke="null" stroke-width="10" stroke-opacity="null" fill-opacity="null" cx="251.5" cy="306.95" id="svg_15" rx="29" ry="29"/>
  <rect fill="#000000" stroke="null" stroke-width="10" stroke-opacity="null" fill-opacity="null" x="306.5" y="306.95" width="81" height="81" id="svg_16"/>
  <ellipse fill="#000000" stroke="null" stroke-width="10" stroke-opacity="null" fill-opacity="null" cx="376.5" cy="306.95" id="svg_17" rx="29" ry="29"/>
  <rect fill="#000000" stroke="null" stroke-width="10" stroke-opacity="null" fill-opacity="null" x="424.5" y="305.95" width="81" height="81" id="svg_18"/>
  <ellipse fill="#000000" stroke="null" stroke-width="10" stroke-opacity="null" fill-opacity="null" cx="494.5" cy="305.95" id="svg_19" rx="29" ry="29"/>
  <rect fill="#000000" stroke="null" stroke-width="10" stroke-opacity="null" fill-opacity="null" x="59.5" y="181.95" width="81" height="81" id="svg_20"/>
  <ellipse fill="#000000" stroke="null" stroke-width="10" stroke-opacity="null" fill-opacity="null" cx="129.5" cy="181.95" id="svg_21" rx="29" ry="29"/>
  <rect fill="#000000" stroke="null" stroke-width="10" stroke-opacity="null" fill-opacity="null" x="185.5" y="182.95" width="81" height="81" id="svg_22"/>
  <ellipse fill="#000000" stroke="null" stroke-width="10" stroke-opacity="null" fill-opacity="null" cx="255.5" cy="183.95" id="svg_23" rx="29" ry="29"/>
  <rect fill="#000000" stroke="null" stroke-width="10" stroke-opacity="null" fill-opacity="null" x="310.5" y="183.95" width="81" height="81" id="svg_24"/>
  <ellipse fill="#000000" stroke="null" stroke-width="10" stroke-opacity="null" fill-opacity="null" cx="380.5" cy="183.95" id="svg_25" rx="29" ry="29"/>
  <rect fill="#000000" stroke="null" stroke-width="10" stroke-opacity="null" fill-opacity="null" x="428.5" y="182.95" width="81" height="81" id="svg_26"/>
  <ellipse fill="#000000" stroke="null" stroke-width="10" stroke-opacity="null" fill-opacity="null" cx="498.5" cy="182.95" id="svg_27" rx="29" ry="29"/>
  <rect fill="#000000" stroke="null" stroke-width="10" stroke-opacity="null" fill-opacity="null" x="59.5" y="59.95" width="81" height="81" id="svg_28"/>
  <ellipse fill="#000000" stroke="null" stroke-width="10" stroke-opacity="null" fill-opacity="null" cx="129.5" cy="59.95" id="svg_29" rx="29" ry="29"/>
  <rect fill="#000000" stroke="null" stroke-width="10" stroke-opacity="null" fill-opacity="null" x="185.5" y="60.95" width="81" height="81" id="svg_30"/>
  <ellipse fill="#000000" stroke="null" stroke-width="10" stroke-opacity="null" fill-opacity="null" cx="255.5" cy="61.95" id="svg_31" rx="29" ry="29"/>
  <rect fill="#000000" stroke="null" stroke-width="10" stroke-opacity="null" fill-opacity="null" x="310.5" y="61.95" width="81" height="81" id="svg_32"/>
  <ellipse fill="#000000" stroke="null" stroke-width="10" stroke-opacity="null" fill-opacity="null" cx="380.5" cy="61.95" id="svg_33" rx="29" ry="29"/>
  <rect fill="#000000" stroke="null" stroke-width="10" stroke-opacity="null" fill-opacity="null" x="428.5" y="60.95" width="81" height="81" id="svg_34"/>
  <ellipse fill="#000000" stroke="null" stroke-width="10" stroke-opacity="null" fill-opacity="null" cx="498.5" cy="60.95" id="svg_35" rx="29" ry="29"/>
 </g>
</svg>