<svg width="576" height="460" xmlns="http://www.w3.org/2000/svg">
 <!-- Created with Method Draw - http://github.com/duopixel/Method-Draw/ -->

 <g>
  <title>background</title>
  <rect x="-1" y="-1" width="578" height="462" id="canvas_background" fill="none"/>
  <g id="canvasGrid" display="none">
   <rect id="svg_1" width="100%" height="100%" x="0" y="0" stroke-width="0" fill="url(#gridpattern)"/>
  </g>
 </g>
 <g>
  <title>Layer 1</title>
  <rect id="svg_2" height="444" width="554" y="8.95" x="12.5" stroke-width="10" stroke="#000000" fill="none"/>
  <rect id="svg_12" height="81" width="81" y="259.95" x="54.5" fill-opacity="null" stroke-opacity="null" stroke-width="10" stroke="null" fill="#000000"/>
  <ellipse ry="29" rx="29" id="svg_13" cy="259.95" cx="124.5" fill-opacity="null" stroke-opacity="null" stroke-width="10" stroke="null" fill="#000000"/>
  <rect id="svg_14" height="81" width="81" y="260.95" x="180.5" fill-opacity="null" stroke-opacity="null" stroke-width="10" stroke="null" fill="#000000"/>
  <ellipse ry="29" rx="29" id="svg_15" cy="260.95" cx="250.5" fill-opacity="null" stroke-opacity="null" stroke-width="10" stroke="null" fill="#000000"/>
  <rect id="svg_16" height="81" width="81" y="260.95" x="305.5" fill-opacity="null" stroke-opacity="null" stroke-width="10" stroke="null" fill="#000000"/>
  <ellipse ry="29" rx="29" id="svg_17" cy="260.95" cx="375.5" fill-opacity="null" stroke-opacity="null" stroke-width="10" stroke="null" fill="#000000"/>
  <rect id="svg_18" height="81" width="81" y="259.95" x="423.5" fill-opacity="null" stroke-opacity="null" stroke-width="10" stroke="null" fill="#000000"/>
  <ellipse ry="29" rx="29" id="svg_19" cy="259.95" cx="493.5" fill-opacity="null" stroke-opacity="null" stroke-width="10" stroke="null" fill="#000000"/>
  <rect fill="#000000" stroke="null" stroke-width="10" stroke-opacity="null" fill-opacity="null" x="45.5" y="31.95" width="31" height="31" id="svg_3"/>
  <rect fill="#000000" stroke="null" stroke-width="10" stroke-opacity="null" fill-opacity="null" x="85.5" y="31.95" width="31" height="31" id="svg_4"/>
  <rect fill="#000000" stroke="null" stroke-width="10" stroke-opacity="null" fill-opacity="null" x="125.5" y="31.95" width="31" height="31" id="svg_5"/>
  <rect fill="#000000" stroke="null" stroke-width="10" stroke-opacity="null" fill-opacity="null" x="165.5" y="31.95" width="31" height="31" id="svg_7"/>
  <rect fill="#000000" stroke="null" stroke-width="10" stroke-opacity="null" fill-opacity="null" x="205.5" y="31.95" width="31" height="31" id="svg_8"/>
  <rect fill="#000000" stroke="null" stroke-width="10" stroke-opacity="null" fill-opacity="null" x="245.5" y="31.95" width="31" height="31" id="svg_9"/>
  <rect fill="#000000" stroke="null" stroke-width="10" stroke-opacity="null" fill-opacity="null" x="285.5" y="31.95" width="31" height="31" id="svg_10"/>
  <rect fill="#000000" stroke="null" stroke-width="10" stroke-opacity="null" fill-opacity="null" x="325.5" y="31.95" width="31" height="31" id="svg_11"/>
  <rect fill="#000000" stroke="null" stroke-width="10" stroke-opacity="null" fill-opacity="null" x="365.5" y="31.95" width="31" height="31" id="svg_20"/>
  <rect fill="#000000" stroke="null" stroke-width="10" stroke-opacity="null" fill-opacity="null" x="405.5" y="31.95" width="31" height="31" id="svg_21"/>
  <rect fill="#000000" stroke="null" stroke-width="10" stroke-opacity="null" fill-opacity="null" x="445.5" y="31.95" width="31" height="31" id="svg_22"/>
  <rect fill="#000000" stroke="null" stroke-width="10" stroke-opacity="null" fill-opacity="null" x="485.5" y="31.95" width="31" height="31" id="svg_23"/>
  <rect fill="#000000" stroke="null" stroke-width="10" stroke-opacity="null" fill-opacity="null" x="45.5" y="71.95" width="31" height="31" id="svg_24"/>
  <rect fill="#000000" stroke="null" stroke-width="10" stroke-opacity="null" fill-opacity="null" x="85.5" y="71.95" width="31" height="31" id="svg_25"/>
  <rect fill="#000000" stroke="null" stroke-width="10" stroke-opacity="null" fill-opacity="null" x="125.5" y="71.95" width="31" height="31" id="svg_26"/>
  <rect fill="#000000" stroke="null" stroke-width="10" stroke-opacity="null" fill-opacity="null" x="165.5" y="71.95" width="31" height="31" id="svg_27"/>
  <rect fill="#000000" stroke="null" stroke-width="10" stroke-opacity="null" fill-opacity="null" x="205.5" y="71.95" width="31" height="31" id="svg_28"/>
  <rect fill="#000000" stroke="null" stroke-width="10" stroke-opacity="null" fill-opacity="null" x="245.5" y="71.95" width="31" height="31" id="svg_29"/>
  <rect fill="#000000" stroke="null" stroke-width="10" stroke-opacity="null" fill-opacity="null" x="285.5" y="71.95" width="31" height="31" id="svg_30"/>
  <rect fill="#000000" stroke="null" stroke-width="10" stroke-opacity="null" fill-opacity="null" x="325.5" y="71.95" width="31" height="31" id="svg_31"/>
  <rect fill="#000000" stroke="null" stroke-width="10" stroke-opacity="null" fill-opacity="null" x="365.5" y="71.95" width="31" height="31" id="svg_32"/>
  <rect fill="#000000" stroke="null" stroke-width="10" stroke-opacity="null" fill-opacity="null" x="405.5" y="71.95" width="31" height="31" id="svg_33"/>
  <rect fill="#000000" stroke="null" stroke-width="10" stroke-opacity="null" fill-opacity="null" x="445.5" y="71.95" width="31" height="31" id="svg_34"/>
  <rect fill="#000000" stroke="null" stroke-width="10" stroke-opacity="null" fill-opacity="null" x="485.5" y="71.95" width="31" height="31" id="svg_35"/>
  <rect fill="#000000" stroke="null" stroke-width="10" stroke-opacity="null" fill-opacity="null" x="45.5" y="111.95" width="31" height="31" id="svg_36"/>
  <rect fill="#000000" stroke="null" stroke-width="10" stroke-opacity="null" fill-opacity="null" x="85.5" y="111.95" width="31" height="31" id="svg_37"/>
  <rect fill="#000000" stroke="null" stroke-width="10" stroke-opacity="null" fill-opacity="null" x="125.5" y="111.95" width="31" height="31" id="svg_38"/>
  <rect fill="#000000" stroke="null" stroke-width="10" stroke-opacity="null" fill-opacity="null" x="165.5" y="111.95" width="31" height="31" id="svg_39"/>
  <rect fill="#000000" stroke="null" stroke-width="10" stroke-opacity="null" fill-opacity="null" x="205.5" y="111.95" width="31" height="31" id="svg_40"/>
  <rect fill="#000000" stroke="null" stroke-width="10" stroke-opacity="null" fill-opacity="null" x="245.5" y="111.95" width="31" height="31" id="svg_41"/>
  <rect fill="#000000" stroke="null" stroke-width="10" stroke-opacity="null" fill-opacity="null" x="285.5" y="111.95" width="31" height="31" id="svg_42"/>
  <rect fill="#000000" stroke="null" stroke-width="10" stroke-opacity="null" fill-opacity="null" x="325.5" y="111.95" width="31" height="31" id="svg_43"/>
  <rect fill="#000000" stroke="null" stroke-width="10" stroke-opacity="null" fill-opacity="null" x="365.5" y="111.95" width="31" height="31" id="svg_44"/>
  <rect fill="#000000" stroke="null" stroke-width="10" stroke-opacity="null" fill-opacity="null" x="405.5" y="111.95" width="31" height="31" id="svg_45"/>
  <rect fill="#000000" stroke="null" stroke-width="10" stroke-opacity="null" fill-opacity="null" x="445.5" y="111.95" width="31" height="31" id="svg_46"/>
  <rect fill="#000000" stroke="null" stroke-width="10" stroke-opacity="null" fill-opacity="null" x="485.5" y="111.95" width="31" height="31" id="svg_47"/>
  <text xml:space="preserve" text-anchor="start" font-family="sans-serif" font-size="80" id="svg_48" y="215.95" x="51.5" fill-opacity="null" stroke-opacity="null" stroke-width="0" stroke="null" fill="#000000">mmmmmmm</text>
  <rect fill="#000000" stroke="null" stroke-width="10" stroke-opacity="null" fill-opacity="null" x="56.5" y="356.95" width="166" height="35" id="svg_6"/>
  <rect fill="#000000" stroke="null" stroke-width="10" stroke-opacity="null" fill-opacity="null" x="234.5" y="356.95" width="143" height="37" id="svg_49"/>
  <rect fill="#000000" stroke="null" stroke-width="10" stroke-opacity="null" fill-opacity="null" x="57.5" y="398.95" width="269.00001" height="35" id="svg_50"/>
  <rect fill="#000000" stroke="null" stroke-width="10" stroke-opacity="null" fill-opacity="null" x="339.5" y="396.95" width="38" height="36" id="svg_51"/>
 </g>
</svg>